# MagicaVoxel @ Ephtracy

# group
o 

# material
mtllib chr_knight.mtl
usemtl palette

# normals
vn -1 0 0
vn 1 0 0
vn 0 0 1
vn 0 0 -1
vn 0 -1 0
vn 0 1 0

# texcoords
vt 0.0332031 0.5
vt 0.0605469 0.5
vt 0.0683594 0.5
vt 0.138672 0.5
vt 0.251953 0.5
vt 0.279297 0.5
vt 0.369141 0.5
vt 0.423828 0.5
vt 0.427734 0.5
vt 0.431641 0.5
vt 0.841797 0.5
vt 0.845703 0.5
vt 0.958984 0.5
vt 0.966797 0.5
vt 0.970703 0.5
vt 0.974609 0.5
vt 0.978516 0.5
vt 0.994141 0.5

# verts
v -0.7 0.9 -2.98023e-08
v -0.7 0.9 -0.1
v -0.7 1.1 -2.98023e-08
v -0.7 1.1 -0.1
v -0.7 1.2 -2.98023e-08
v -0.7 1.2 -0.1
v -0.7 1.3 -2.98023e-08
v -0.7 1.3 -0.1
v -0.6 0 -2.98023e-08
v -0.6 0 -0.1
v -0.6 0.8 -2.98023e-08
v -0.6 0.8 -0.1
v -0.6 0.9 -2.98023e-08
v -0.6 0.9 -0.1
v -0.5 1.3 -2.98023e-08
v -0.5 1.3 -0.1
v -0.5 1.4 -2.98023e-08
v -0.5 1.4 -0.1
v -0.5 1.5 -2.98023e-08
v -0.5 1.5 -0.1
v -0.4 0.4 -2.98023e-08
v -0.4 0.4 -0.1
v -0.4 0.5 -2.98023e-08
v -0.4 0.5 -0.1
v -0.4 0.8 0.1
v -0.4 0.8 -0.2
v -0.4 0.9 0.2
v -0.4 0.9 0.1
v -0.4 0.9 -2.98023e-08
v -0.4 0.9 -0.1
v -0.4 0.9 -0.2
v -0.4 0.9 -0.3
v -0.4 1 0.1
v -0.4 1 -2.98023e-08
v -0.4 1 -0.1
v -0.4 1 -0.2
v -0.4 1.1 0.1
v -0.4 1.1 -2.98023e-08
v -0.4 1.1 -0.1
v -0.4 1.1 -0.2
v -0.4 1.2 0.2
v -0.4 1.2 0.1
v -0.4 1.2 -2.98023e-08
v -0.4 1.2 -0.1
v -0.4 1.2 -0.2
v -0.4 1.2 -0.3
v -0.4 1.3 0.1
v -0.4 1.3 -2.98023e-08
v -0.4 1.3 -0.1
v -0.4 1.3 -0.2
v -0.3 0.3 0.2
v -0.3 0.3 0.1
v -0.3 0.3 -2.98023e-08
v -0.3 0.3 -0.1
v -0.3 0.3 -0.2
v -0.3 0.3 -0.3
v -0.3 0.4 0.2
v -0.3 0.4 0.1
v -0.3 0.4 -2.98023e-08
v -0.3 0.4 -0.1
v -0.3 0.4 -0.2
v -0.3 0.4 -0.3
v -0.3 0.5 0.1
v -0.3 0.5 -2.98023e-08
v -0.3 0.5 -0.1
v -0.3 0.6 -2.98023e-08
v -0.3 0.6 -0.1
v -0.3 0.6 -0.2
v -0.3 0.7 0.2
v -0.3 0.7 0.1
v -0.3 0.7 -2.98023e-08
v -0.3 0.7 -0.1
v -0.3 0.7 -0.2
v -0.3 0.7 -0.3
v -0.3 0.8 0.1
v -0.3 0.8 -2.98023e-08
v -0.3 0.8 -0.2
v -0.3 0.8 -0.3
v -0.3 0.9 0.2
v -0.3 0.9 0.1
v -0.3 0.9 -2.98023e-08
v -0.3 0.9 -0.1
v -0.3 0.9 -0.2
v -0.3 0.9 -0.3
v -0.3 0.9 -0.4
v -0.3 1 0.3
v -0.3 1 0.2
v -0.3 1 0.1
v -0.3 1 -2.98023e-08
v -0.3 1 -0.1
v -0.3 1 -0.2
v -0.3 1.1 0.1
v -0.3 1.1 -2.98023e-08
v -0.3 1.1 -0.1
v -0.3 1.1 -0.2
v -0.3 1.2 0.3
v -0.3 1.2 0.2
v -0.3 1.2 0.1
v -0.3 1.2 -2.98023e-08
v -0.3 1.2 -0.1
v -0.3 1.2 -0.2
v -0.3 1.2 -0.3
v -0.3 1.2 -0.4
v -0.3 1.3 0.2
v -0.3 1.3 0.1
v -0.3 1.3 -0.2
v -0.3 1.3 -0.3
v -0.2 0 -2.98023e-08
v -0.2 0 -0.1
v -0.2 0.2 -2.98023e-08
v -0.2 0.2 -0.1
v -0.2 0.3 -2.98023e-08
v -0.2 0.3 -0.1
v -0.2 0.4 0.1
v -0.2 0.4 -2.98023e-08
v -0.2 0.4 -0.1
v -0.2 0.4 -0.2
v -0.2 0.5 0.1
v -0.2 0.5 -2.98023e-08
v -0.2 0.5 -0.1
v -0.2 0.6 0.2
v -0.2 0.6 0.1
v -0.2 0.6 -0.1
v -0.2 0.6 -0.2
v -0.2 0.6 -0.3
v -0.2 0.7 0.2
v -0.2 0.7 0.1
v -0.2 0.7 -2.98023e-08
v -0.2 0.7 -0.2
v -0.2 0.7 -0.3
v -0.2 0.7 -0.4
v -0.2 0.8 0.1
v -0.2 0.8 -2.98023e-08
v -0.2 0.8 -0.3
v -0.2 0.8 -0.4
v -0.2 0.8 -0.5
v -0.2 0.9 -0.3
v -0.2 0.9 -0.4
v -0.2 1.1 -0.4
v -0.2 1.1 -0.5
v -0.2 1.3 0.1
v -0.2 1.3 -0.2
v -0.2 1.4 0.1
v -0.2 1.4 -0.2
v -0.1 0.6 -0.3
v -0.1 0.6 -0.4
v -0.1 0.7 -0.3
v -0.1 0.7 -0.4
v -0.1 0.9 0.2
v -0.1 0.9 0.1
v -0.1 1 0.2
v -0.1 1 0.1
v 0.1 0 -2.98023e-08
v 0.1 0 -0.1
v 0.1 0.2 -2.98023e-08
v 0.1 0.2 -0.1
v 0.1 0.3 -2.98023e-08
v 0.1 0.3 -0.1
v 0.1 0.5 -0.2
v 0.1 0.5 -0.3
v 0.1 0.5 -0.4
v 0.1 0.6 0.2
v 0.1 0.6 0.1
v 0.1 0.6 -0.2
v 0.1 0.6 -0.3
v 0.1 0.6 -0.4
v 0.1 0.7 0.2
v 0.1 0.7 0.1
v 0.1 0.7 -0.3
v 0.1 0.7 -0.4
v 0.1 0.8 -0.3
v 0.1 0.8 -0.4
v 0.1 0.8 -0.5
v 0.1 0.9 -0.3
v 0.1 0.9 -0.5
v 0.2 0.4 -0.3
v 0.2 0.4 -0.4
v 0.2 0.5 -0.3
v 0.2 0.5 -0.4
v 0.2 0.6 -0.3
v 0.2 0.6 -0.4
v 0.2 0.7 0.2
v 0.2 0.7 0.1
v 0.2 0.7 -0.3
v 0.2 0.7 -0.4
v 0.2 0.8 0.1
v 0.2 0.9 0.1
v 0.2 1 0.2
v 0.2 1 0.1
v 0.3 0.3 -0.3
v 0.3 0.3 -0.4
v 0.3 0.4 -0.3
v 0.3 0.4 -0.4
v 0.3 0.5 -2.98023e-08
v 0.3 0.5 -0.1
v 0.3 0.5 -0.3
v 0.3 0.5 -0.4
v 0.3 0.6 -2.98023e-08
v 0.3 0.6 -0.1
v 0.3 0.6 -0.3
v 0.3 0.6 -0.4
v 0.3 1.3 -2.98023e-08
v 0.3 1.3 -0.1
v 0.3 1.4 -2.98023e-08
v 0.3 1.4 -0.1
v 0.4 0.4 -2.98023e-08
v 0.4 0.4 -0.1
v 0.4 0.4 -0.3
v 0.4 0.4 -0.4
v 0.4 0.5 -2.98023e-08
v 0.4 0.5 -0.1
v 0.4 0.5 -0.3
v 0.4 0.5 -0.4
v 0.4 0.6 -0.2
v 0.4 0.6 -0.3
v 0.4 0.7 -0.2
v 0.4 0.7 -0.3
v 0.4 1.4 -2.98023e-08
v 0.4 1.4 -0.1
v 0.4 1.5 -2.98023e-08
v 0.4 1.5 -0.1
v 0.5 0.3 -0.3
v 0.5 0.3 -0.4
v 0.5 0.4 -0.3
v 0.5 0.4 -0.4
v 0.6 0.4 -0.2
v 0.6 0.4 -0.3
v 0.6 0.5 -0.2
v 0.6 0.5 -0.3
v 0.6 0.6 -2.98023e-08
v 0.6 0.6 -0.1
v 0.6 0.7 -2.98023e-08
v 0.6 0.7 -0.1
v 0.7 0.5 -0.1
v 0.7 0.5 -0.2
v 0.7 0.6 -0.1
v 0.7 0.6 -0.2
v -0.5 0 -2.98023e-08
v -0.5 0 -0.1
v -0.5 0.3 -2.98023e-08
v -0.5 0.3 -0.1
v -0.5 0.4 -2.98023e-08
v -0.5 0.4 -0.1
v -0.5 0.8 -2.98023e-08
v -0.5 0.8 -0.1
v -0.5 0.9 -2.98023e-08
v -0.5 0.9 -0.1
v -0.4 0.3 -2.98023e-08
v -0.4 0.3 -0.1
v -0.4 0.4 -2.98023e-08
v -0.4 0.4 -0.1
v -0.4 1 -2.98023e-08
v -0.4 1 -0.1
v -0.4 1.1 -2.98023e-08
v -0.4 1.1 -0.1
v -0.4 1.4 -2.98023e-08
v -0.4 1.4 -0.1
v -0.4 1.5 -2.98023e-08
v -0.4 1.5 -0.1
v -0.3 0.4 -2.98023e-08
v -0.3 0.4 -0.1
v -0.3 0.5 -2.98023e-08
v -0.3 0.5 -0.1
v -0.3 1.3 -2.98023e-08
v -0.3 1.3 -0.1
v -0.3 1.4 -2.98023e-08
v -0.3 1.4 -0.1
v -0.2 0.7 0.2
v -0.2 0.7 0.1
v -0.2 0.8 0.1
v -0.2 0.9 0.1
v -0.2 1 0.2
v -0.2 1 0.1
v -0.1 0 -2.98023e-08
v -0.1 0 -0.1
v -0.1 0.2 -2.98023e-08
v -0.1 0.2 -0.1
v -0.1 0.3 -2.98023e-08
v -0.1 0.3 -0.1
v -0.1 0.6 0.2
v -0.1 0.6 0.1
v -0.1 0.7 0.2
v -0.1 0.7 0.1
v -0.1 0.7 -0.3
v -0.1 0.7 -0.4
v -0.1 0.8 -0.3
v -0.1 0.8 -0.4
v -0.1 0.8 -0.5
v -0.1 0.9 -0.3
v -0.1 0.9 -0.5
v 0 0.9 0.2
v 0 0.9 0.1
v 0 1 0.2
v 0 1 0.1
v 0.1 0.6 -0.3
v 0.1 0.6 -0.4
v 0.1 0.7 -0.3
v 0.1 0.7 -0.4
v 0.2 0 -2.98023e-08
v 0.2 0 -0.1
v 0.2 0.2 -2.98023e-08
v 0.2 0.2 -0.1
v 0.2 0.3 -2.98023e-08
v 0.2 0.3 -0.1
v 0.2 0.4 0.1
v 0.2 0.4 -2.98023e-08
v 0.2 0.4 -0.1
v 0.2 0.4 -0.2
v 0.2 0.5 0.1
v 0.2 0.5 -2.98023e-08
v 0.2 0.5 -0.1
v 0.2 0.5 -0.2
v 0.2 0.5 -0.3
v 0.2 0.5 -0.4
v 0.2 0.6 0.2
v 0.2 0.6 0.1
v 0.2 0.6 -2.98023e-08
v 0.2 0.6 -0.1
v 0.2 0.6 -0.3
v 0.2 0.6 -0.4
v 0.2 0.7 0.2
v 0.2 0.7 0.1
v 0.2 0.7 -2.98023e-08
v 0.2 0.7 -0.3
v 0.2 0.7 -0.4
v 0.2 0.8 0.1
v 0.2 0.8 -2.98023e-08
v 0.2 0.8 -0.3
v 0.2 0.8 -0.4
v 0.2 0.8 -0.5
v 0.2 0.9 -0.3
v 0.2 0.9 -0.4
v 0.2 1.1 -0.4
v 0.2 1.1 -0.5
v 0.2 1.3 0.1
v 0.2 1.3 -0.1
v 0.2 1.3 -0.2
v 0.2 1.4 0.1
v 0.2 1.4 -0.2
v 0.3 0.3 0.2
v 0.3 0.3 0.1
v 0.3 0.3 -2.98023e-08
v 0.3 0.3 -0.1
v 0.3 0.3 -0.2
v 0.3 0.3 -0.3
v 0.3 0.4 0.2
v 0.3 0.4 0.1
v 0.3 0.4 -2.98023e-08
v 0.3 0.4 -0.1
v 0.3 0.4 -0.2
v 0.3 0.4 -0.3
v 0.3 0.4 -0.4
v 0.3 0.5 0.1
v 0.3 0.5 -2.98023e-08
v 0.3 0.5 -0.3
v 0.3 0.5 -0.4
v 0.3 0.6 -2.98023e-08
v 0.3 0.6 -0.1
v 0.3 0.6 -0.3
v 0.3 0.6 -0.4
v 0.3 0.7 0.2
v 0.3 0.7 0.1
v 0.3 0.7 -2.98023e-08
v 0.3 0.7 -0.1
v 0.3 0.7 -0.2
v 0.3 0.7 -0.3
v 0.3 0.7 -0.4
v 0.3 0.8 0.1
v 0.3 0.8 -2.98023e-08
v 0.3 0.8 -0.1
v 0.3 0.8 -0.2
v 0.3 0.8 -0.3
v 0.3 0.9 0.2
v 0.3 0.9 0.1
v 0.3 0.9 -2.98023e-08
v 0.3 0.9 -0.1
v 0.3 0.9 -0.2
v 0.3 0.9 -0.3
v 0.3 0.9 -0.4
v 0.3 1 0.3
v 0.3 1 0.2
v 0.3 1 0.1
v 0.3 1 -2.98023e-08
v 0.3 1 -0.1
v 0.3 1 -0.2
v 0.3 1.1 0.3
v 0.3 1.1 0.2
v 0.3 1.1 0.1
v 0.3 1.1 -2.98023e-08
v 0.3 1.1 -0.1
v 0.3 1.1 -0.2
v 0.3 1.2 0.3
v 0.3 1.2 0.2
v 0.3 1.2 0.1
v 0.3 1.2 -2.98023e-08
v 0.3 1.2 -0.1
v 0.3 1.2 -0.2
v 0.3 1.2 -0.3
v 0.3 1.2 -0.4
v 0.3 1.3 0.2
v 0.3 1.3 0.1
v 0.3 1.3 -0.2
v 0.3 1.3 -0.3
v 0.4 0.3 -2.98023e-08
v 0.4 0.3 -0.1
v 0.4 0.3 -0.3
v 0.4 0.3 -0.4
v 0.4 0.4 -2.98023e-08
v 0.4 0.4 -0.1
v 0.4 0.4 -0.3
v 0.4 0.4 -0.4
v 0.4 0.5 -2.98023e-08
v 0.4 0.5 -0.1
v 0.4 0.5 -0.3
v 0.4 0.5 -0.4
v 0.4 0.6 -2.98023e-08
v 0.4 0.6 -0.1
v 0.4 0.6 -0.3
v 0.4 0.6 -0.4
v 0.4 0.7 -0.1
v 0.4 0.7 -0.2
v 0.4 0.8 0.1
v 0.4 0.8 -0.1
v 0.4 0.8 -0.2
v 0.4 0.9 0.2
v 0.4 0.9 0.1
v 0.4 0.9 -2.98023e-08
v 0.4 0.9 -0.1
v 0.4 0.9 -0.2
v 0.4 0.9 -0.3
v 0.4 1 0.1
v 0.4 1 -2.98023e-08
v 0.4 1 -0.1
v 0.4 1 -0.2
v 0.4 1.1 0.1
v 0.4 1.1 -2.98023e-08
v 0.4 1.1 -0.1
v 0.4 1.1 -0.2
v 0.4 1.2 0.2
v 0.4 1.2 0.1
v 0.4 1.2 -2.98023e-08
v 0.4 1.2 -0.1
v 0.4 1.2 -0.2
v 0.4 1.2 -0.3
v 0.4 1.3 0.1
v 0.4 1.3 -2.98023e-08
v 0.4 1.3 -0.1
v 0.4 1.3 -0.2
v 0.5 0.4 -2.98023e-08
v 0.5 0.4 -0.1
v 0.5 0.4 -0.3
v 0.5 0.4 -0.4
v 0.5 0.5 -2.98023e-08
v 0.5 0.5 -0.1
v 0.5 0.5 -0.3
v 0.5 0.5 -0.4
v 0.5 0.6 -0.2
v 0.5 0.6 -0.3
v 0.5 0.7 -0.2
v 0.5 0.7 -0.3
v 0.5 1.3 -2.98023e-08
v 0.5 1.3 -0.1
v 0.5 1.4 -2.98023e-08
v 0.5 1.4 -0.1
v 0.5 1.5 -2.98023e-08
v 0.5 1.5 -0.1
v 0.6 0.3 -0.3
v 0.6 0.3 -0.4
v 0.6 0.4 -0.3
v 0.6 0.4 -0.4
v 0.7 0.4 -0.2
v 0.7 0.4 -0.3
v 0.7 0.5 -0.2
v 0.7 0.5 -0.3
v 0.7 0.6 -2.98023e-08
v 0.7 0.6 -0.1
v 0.7 0.7 -2.98023e-08
v 0.7 0.7 -0.1
v 0.8 0.5 -0.1
v 0.8 0.5 -0.2
v 0.8 0.6 -0.1
v 0.8 0.6 -0.2
v -0.3 1 0.3
v -0.3 1.2 0.3
v 0 1 0.3
v 0 1.2 0.3
v 0.2 1.1 0.3
v 0.2 1.2 0.3
v 0.3 1 0.3
v 0.3 1.1 0.3
v 0.3 1.2 0.3
v -0.4 0.9 0.2
v -0.4 1.2 0.2
v -0.3 0.3 0.2
v -0.3 0.4 0.2
v -0.3 0.7 0.2
v -0.3 0.9 0.2
v -0.3 1 0.2
v -0.3 1.2 0.2
v -0.3 1.3 0.2
v -0.2 0.3 0.2
v -0.2 0.4 0.2
v -0.2 0.6 0.2
v -0.2 0.7 0.2
v -0.2 1 0.2
v -0.2 1.2 0.2
v -0.2 1.3 0.2
v -0.1 0.3 0.2
v -0.1 0.4 0.2
v -0.1 0.6 0.2
v -0.1 0.7 0.2
v -0.1 0.9 0.2
v -0.1 1 0.2
v 0 0.3 0.2
v 0 0.4 0.2
v 0 0.9 0.2
v 0 1 0.2
v 0 1.2 0.2
v 0.1 0.3 0.2
v 0.1 0.4 0.2
v 0.1 0.6 0.2
v 0.1 0.7 0.2
v 0.2 0.3 0.2
v 0.2 0.4 0.2
v 0.2 0.6 0.2
v 0.2 0.7 0.2
v 0.2 1 0.2
v 0.2 1.2 0.2
v 0.3 0.3 0.2
v 0.3 0.4 0.2
v 0.3 0.7 0.2
v 0.3 0.9 0.2
v 0.3 1 0.2
v 0.3 1.1 0.2
v 0.3 1.2 0.2
v 0.3 1.3 0.2
v 0.4 0.9 0.2
v 0.4 1.2 0.2
v -0.4 0.8 0.1
v -0.4 0.9 0.1
v -0.4 1.2 0.1
v -0.4 1.3 0.1
v -0.3 0.5 0.1
v -0.3 0.7 0.1
v -0.3 0.8 0.1
v -0.3 0.9 0.1
v -0.3 1.2 0.1
v -0.3 1.3 0.1
v -0.2 0.4 0.1
v -0.2 0.5 0.1
v -0.2 0.6 0.1
v -0.2 0.7 0.1
v -0.2 0.8 0.1
v -0.2 0.9 0.1
v -0.2 1 0.1
v -0.2 1.3 0.1
v -0.2 1.4 0.1
v -0.1 0.4 0.1
v -0.1 0.6 0.1
v -0.1 0.7 0.1
v -0.1 0.8 0.1
v -0.1 0.9 0.1
v -0.1 1 0.1
v -0.1 1.3 0.1
v -0.1 1.4 0.1
v 0 0.4 0.1
v 0 0.6 0.1
v 0 0.7 0.1
v 0 0.8 0.1
v 0 0.9 0.1
v 0 1 0.1
v 0.1 0.4 0.1
v 0.1 0.5 0.1
v 0.1 0.6 0.1
v 0.1 0.7 0.1
v 0.1 0.8 0.1
v 0.1 0.9 0.1
v 0.2 0.4 0.1
v 0.2 0.5 0.1
v 0.2 0.6 0.1
v 0.2 0.7 0.1
v 0.2 0.8 0.1
v 0.2 0.9 0.1
v 0.2 1 0.1
v 0.2 1.3 0.1
v 0.2 1.4 0.1
v 0.3 0.5 0.1
v 0.3 0.7 0.1
v 0.3 0.8 0.1
v 0.3 0.9 0.1
v 0.3 1.2 0.1
v 0.3 1.3 0.1
v 0.4 0.8 0.1
v 0.4 0.9 0.1
v 0.4 1.2 0.1
v 0.4 1.3 0.1
v -0.7 0.9 -2.98023e-08
v -0.7 1.1 -2.98023e-08
v -0.7 1.2 -2.98023e-08
v -0.7 1.3 -2.98023e-08
v -0.6 0 -2.98023e-08
v -0.6 0.8 -2.98023e-08
v -0.6 0.9 -2.98023e-08
v -0.6 1 -2.98023e-08
v -0.6 1.1 -2.98023e-08
v -0.6 1.2 -2.98023e-08
v -0.6 1.3 -2.98023e-08
v -0.5 0 -2.98023e-08
v -0.5 0.3 -2.98023e-08
v -0.5 0.4 -2.98023e-08
v -0.5 0.8 -2.98023e-08
v -0.5 0.9 -2.98023e-08
v -0.5 1 -2.98023e-08
v -0.5 1.1 -2.98023e-08
v -0.5 1.2 -2.98023e-08
v -0.5 1.3 -2.98023e-08
v -0.5 1.4 -2.98023e-08
v -0.5 1.5 -2.98023e-08
v -0.4 0.3 -2.98023e-08
v -0.4 0.4 -2.98023e-08
v -0.4 0.5 -2.98023e-08
v -0.4 0.9 -2.98023e-08
v -0.4 1 -2.98023e-08
v -0.4 1.1 -2.98023e-08
v -0.4 1.2 -2.98023e-08
v -0.4 1.3 -2.98023e-08
v -0.4 1.4 -2.98023e-08
v -0.4 1.5 -2.98023e-08
v -0.3 0.4 -2.98023e-08
v -0.3 0.5 -2.98023e-08
v -0.3 0.7 -2.98023e-08
v -0.3 0.8 -2.98023e-08
v -0.3 0.9 -2.98023e-08
v -0.3 1 -2.98023e-08
v -0.3 1.1 -2.98023e-08
v -0.3 1.2 -2.98023e-08
v -0.3 1.3 -2.98023e-08
v -0.3 1.4 -2.98023e-08
v -0.2 0 -2.98023e-08
v -0.2 0.2 -2.98023e-08
v -0.2 0.3 -2.98023e-08
v -0.2 0.7 -2.98023e-08
v -0.2 0.8 -2.98023e-08
v -0.1 0 -2.98023e-08
v -0.1 0.2 -2.98023e-08
v -0.1 0.3 -2.98023e-08
v 0.1 0 -2.98023e-08
v 0.1 0.2 -2.98023e-08
v 0.1 0.3 -2.98023e-08
v 0.2 0 -2.98023e-08
v 0.2 0.2 -2.98023e-08
v 0.2 0.3 -2.98023e-08
v 0.2 0.7 -2.98023e-08
v 0.2 0.8 -2.98023e-08
v 0.3 0.3 -2.98023e-08
v 0.3 0.4 -2.98023e-08
v 0.3 0.5 -2.98023e-08
v 0.3 0.6 -2.98023e-08
v 0.3 0.7 -2.98023e-08
v 0.3 0.8 -2.98023e-08
v 0.3 0.9 -2.98023e-08
v 0.3 1 -2.98023e-08
v 0.3 1.1 -2.98023e-08
v 0.3 1.2 -2.98023e-08
v 0.3 1.3 -2.98023e-08
v 0.3 1.4 -2.98023e-08
v 0.4 0.3 -2.98023e-08
v 0.4 0.4 -2.98023e-08
v 0.4 0.5 -2.98023e-08
v 0.4 0.6 -2.98023e-08
v 0.4 0.9 -2.98023e-08
v 0.4 1 -2.98023e-08
v 0.4 1.1 -2.98023e-08
v 0.4 1.2 -2.98023e-08
v 0.4 1.3 -2.98023e-08
v 0.4 1.4 -2.98023e-08
v 0.4 1.5 -2.98023e-08
v 0.5 0.4 -2.98023e-08
v 0.5 0.5 -2.98023e-08
v 0.5 1.3 -2.98023e-08
v 0.5 1.4 -2.98023e-08
v 0.5 1.5 -2.98023e-08
v 0.6 0.6 -2.98023e-08
v 0.6 0.7 -2.98023e-08
v 0.7 0.6 -2.98023e-08
v 0.7 0.7 -2.98023e-08
v -0.4 1 -0.1
v -0.4 1.1 -0.1
v -0.3 1 -0.1
v -0.3 1.1 -0.1
v 0.3 0.7 -0.1
v 0.3 0.8 -0.1
v 0.3 1 -0.1
v 0.3 1.1 -0.1
v 0.4 0.7 -0.1
v 0.4 0.8 -0.1
v 0.4 1 -0.1
v 0.4 1.1 -0.1
v 0.7 0.5 -0.1
v 0.7 0.6 -0.1
v 0.8 0.5 -0.1
v 0.8 0.6 -0.1
v -0.4 0.9 -0.2
v -0.4 1 -0.2
v -0.4 1.1 -0.2
v -0.4 1.2 -0.2
v -0.3 0.9 -0.2
v -0.3 1 -0.2
v -0.3 1.1 -0.2
v -0.3 1.2 -0.2
v 0.3 0.9 -0.2
v 0.3 1 -0.2
v 0.3 1.1 -0.2
v 0.3 1.2 -0.2
v 0.4 0.6 -0.2
v 0.4 0.7 -0.2
v 0.4 0.9 -0.2
v 0.4 1 -0.2
v 0.4 1.1 -0.2
v 0.4 1.2 -0.2
v 0.5 0.6 -0.2
v 0.5 0.7 -0.2
v 0.6 0.4 -0.2
v 0.6 0.5 -0.2
v 0.7 0.4 -0.2
v 0.7 0.5 -0.2
v 0.2 0.4 -0.3
v 0.2 0.5 -0.3
v 0.3 0.3 -0.3
v 0.3 0.4 -0.3
v 0.3 0.5 -0.3
v 0.3 0.6 -0.3
v 0.4 0.3 -0.3
v 0.4 0.4 -0.3
v 0.4 0.5 -0.3
v 0.4 0.6 -0.3
v 0.5 0.3 -0.3
v 0.5 0.4 -0.3
v 0.5 0.5 -0.3
v 0.6 0.3 -0.3
v 0.6 0.4 -0.3
v -0.4 0.9 0.1
v -0.4 1 0.1
v -0.4 1.1 0.1
v -0.4 1.2 0.1
v -0.3 0.7 0.1
v -0.3 0.8 0.1
v -0.3 0.9 0.1
v -0.3 1 0.1
v -0.3 1.1 0.1
v -0.3 1.2 0.1
v -0.2 0.7 0.1
v -0.2 0.8 0.1
v 0.2 0.7 0.1
v 0.2 0.8 0.1
v 0.3 0.7 0.1
v 0.3 0.8 0.1
v 0.3 0.9 0.1
v 0.3 1 0.1
v 0.3 1.1 0.1
v 0.3 1.2 0.1
v 0.4 0.9 0.1
v 0.4 1 0.1
v 0.4 1.1 0.1
v 0.4 1.2 0.1
v -0.4 1 -2.98023e-08
v -0.4 1.1 -2.98023e-08
v -0.3 1 -2.98023e-08
v -0.3 1.1 -2.98023e-08
v 0.2 0.5 -2.98023e-08
v 0.2 0.6 -2.98023e-08
v 0.3 0.5 -2.98023e-08
v 0.3 0.6 -2.98023e-08
v 0.3 1 -2.98023e-08
v 0.3 1.1 -2.98023e-08
v 0.4 1 -2.98023e-08
v 0.4 1.1 -2.98023e-08
v -0.7 0.9 -0.1
v -0.7 1.1 -0.1
v -0.7 1.2 -0.1
v -0.7 1.3 -0.1
v -0.6 0 -0.1
v -0.6 0.8 -0.1
v -0.6 0.9 -0.1
v -0.6 1 -0.1
v -0.6 1.1 -0.1
v -0.6 1.2 -0.1
v -0.6 1.3 -0.1
v -0.5 0 -0.1
v -0.5 0.3 -0.1
v -0.5 0.4 -0.1
v -0.5 0.8 -0.1
v -0.5 0.9 -0.1
v -0.5 1 -0.1
v -0.5 1.1 -0.1
v -0.5 1.2 -0.1
v -0.5 1.3 -0.1
v -0.5 1.4 -0.1
v -0.5 1.5 -0.1
v -0.4 0.3 -0.1
v -0.4 0.4 -0.1
v -0.4 0.5 -0.1
v -0.4 0.9 -0.1
v -0.4 1 -0.1
v -0.4 1.1 -0.1
v -0.4 1.2 -0.1
v -0.4 1.3 -0.1
v -0.4 1.4 -0.1
v -0.4 1.5 -0.1
v -0.3 0.4 -0.1
v -0.3 0.5 -0.1
v -0.3 0.6 -0.1
v -0.3 0.9 -0.1
v -0.3 1 -0.1
v -0.3 1.1 -0.1
v -0.3 1.2 -0.1
v -0.3 1.3 -0.1
v -0.3 1.4 -0.1
v -0.2 0 -0.1
v -0.2 0.2 -0.1
v -0.2 0.3 -0.1
v -0.2 0.5 -0.1
v -0.2 0.6 -0.1
v -0.1 0 -0.1
v -0.1 0.2 -0.1
v -0.1 0.3 -0.1
v 0.1 0 -0.1
v 0.1 0.2 -0.1
v 0.1 0.3 -0.1
v 0.2 0 -0.1
v 0.2 0.2 -0.1
v 0.2 0.3 -0.1
v 0.3 0.3 -0.1
v 0.3 0.4 -0.1
v 0.3 0.5 -0.1
v 0.3 0.6 -0.1
v 0.3 0.9 -0.1
v 0.3 1 -0.1
v 0.3 1.1 -0.1
v 0.3 1.2 -0.1
v 0.3 1.3 -0.1
v 0.3 1.4 -0.1
v 0.4 0.3 -0.1
v 0.4 0.4 -0.1
v 0.4 0.5 -0.1
v 0.4 0.6 -0.1
v 0.4 0.9 -0.1
v 0.4 1 -0.1
v 0.4 1.1 -0.1
v 0.4 1.2 -0.1
v 0.4 1.3 -0.1
v 0.4 1.4 -0.1
v 0.4 1.5 -0.1
v 0.5 0.4 -0.1
v 0.5 0.5 -0.1
v 0.5 1.3 -0.1
v 0.5 1.4 -0.1
v 0.5 1.5 -0.1
v 0.6 0.6 -0.1
v 0.6 0.7 -0.1
v 0.7 0.6 -0.1
v 0.7 0.7 -0.1
v -0.4 0.8 -0.2
v -0.4 0.9 -0.2
v -0.4 1.2 -0.2
v -0.4 1.3 -0.2
v -0.3 0.6 -0.2
v -0.3 0.7 -0.2
v -0.3 0.8 -0.2
v -0.3 0.9 -0.2
v -0.3 1.2 -0.2
v -0.3 1.3 -0.2
v -0.2 0.4 -0.2
v -0.2 0.6 -0.2
v -0.2 0.7 -0.2
v -0.2 1.3 -0.2
v -0.2 1.4 -0.2
v -0.1 0.4 -0.2
v -0.1 0.6 -0.2
v -0.1 1.3 -0.2
v -0.1 1.4 -0.2
v 0 0.4 -0.2
v 0 0.6 -0.2
v 0.1 0.4 -0.2
v 0.1 0.5 -0.2
v 0.1 0.6 -0.2
v 0.2 0.4 -0.2
v 0.2 0.5 -0.2
v 0.2 1.3 -0.2
v 0.2 1.4 -0.2
v 0.3 0.7 -0.2
v 0.3 0.8 -0.2
v 0.3 0.9 -0.2
v 0.3 1.2 -0.2
v 0.3 1.3 -0.2
v 0.4 0.7 -0.2
v 0.4 0.8 -0.2
v 0.4 0.9 -0.2
v 0.4 1.2 -0.2
v 0.4 1.3 -0.2
v 0.7 0.5 -0.2
v 0.7 0.6 -0.2
v 0.8 0.5 -0.2
v 0.8 0.6 -0.2
v -0.4 0.9 -0.3
v -0.4 1.2 -0.3
v -0.3 0.3 -0.3
v -0.3 0.4 -0.3
v -0.3 0.7 -0.3
v -0.3 0.8 -0.3
v -0.3 0.9 -0.3
v -0.3 1.2 -0.3
v -0.3 1.3 -0.3
v -0.2 0.3 -0.3
v -0.2 0.4 -0.3
v -0.2 0.6 -0.3
v -0.2 0.7 -0.3
v -0.2 0.8 -0.3
v -0.2 0.9 -0.3
v -0.1 0.3 -0.3
v -0.1 0.4 -0.3
v -0.1 0.6 -0.3
v -0.1 0.7 -0.3
v -0.1 0.8 -0.3
v -0.1 0.9 -0.3
v 0 0.3 -0.3
v 0 0.4 -0.3
v 0.1 0.3 -0.3
v 0.1 0.4 -0.3
v 0.1 0.6 -0.3
v 0.1 0.7 -0.3
v 0.1 0.8 -0.3
v 0.1 0.9 -0.3
v 0.2 0.3 -0.3
v 0.2 0.4 -0.3
v 0.2 0.6 -0.3
v 0.2 0.7 -0.3
v 0.2 0.8 -0.3
v 0.2 0.9 -0.3
v 0.3 0.3 -0.3
v 0.3 0.4 -0.3
v 0.3 0.7 -0.3
v 0.3 0.8 -0.3
v 0.3 0.9 -0.3
v 0.3 1.2 -0.3
v 0.3 1.3 -0.3
v 0.4 0.6 -0.3
v 0.4 0.7 -0.3
v 0.4 0.9 -0.3
v 0.4 1.2 -0.3
v 0.5 0.6 -0.3
v 0.5 0.7 -0.3
v 0.6 0.4 -0.3
v 0.6 0.5 -0.3
v 0.7 0.4 -0.3
v 0.7 0.5 -0.3
v -0.3 0.9 -0.4
v -0.3 1.2 -0.4
v -0.2 0.7 -0.4
v -0.2 0.8 -0.4
v -0.2 0.9 -0.4
v -0.2 1.1 -0.4
v -0.1 0.6 -0.4
v -0.1 0.7 -0.4
v -0.1 0.8 -0.4
v 0.1 0.5 -0.4
v 0.1 0.6 -0.4
v 0.1 0.7 -0.4
v 0.1 0.8 -0.4
v 0.2 0.4 -0.4
v 0.2 0.5 -0.4
v 0.2 0.6 -0.4
v 0.2 0.7 -0.4
v 0.2 0.8 -0.4
v 0.2 0.9 -0.4
v 0.2 1.1 -0.4
v 0.3 0.3 -0.4
v 0.3 0.4 -0.4
v 0.3 0.5 -0.4
v 0.3 0.6 -0.4
v 0.3 0.7 -0.4
v 0.3 0.9 -0.4
v 0.3 1.2 -0.4
v 0.4 0.3 -0.4
v 0.4 0.4 -0.4
v 0.4 0.5 -0.4
v 0.4 0.6 -0.4
v 0.5 0.3 -0.4
v 0.5 0.4 -0.4
v 0.5 0.5 -0.4
v 0.6 0.3 -0.4
v 0.6 0.4 -0.4
v -0.2 0.8 -0.5
v -0.2 1.1 -0.5
v -0.1 0.8 -0.5
v -0.1 0.9 -0.5
v 0.1 0.8 -0.5
v 0.1 0.9 -0.5
v 0.2 0.8 -0.5
v 0.2 1.1 -0.5
v -0.6 0 -2.98023e-08
v -0.5 0 -2.98023e-08
v -0.2 0 -2.98023e-08
v -0.1 0 -2.98023e-08
v 0.1 0 -2.98023e-08
v 0.2 0 -2.98023e-08
v -0.6 0 -0.1
v -0.5 0 -0.1
v -0.2 0 -0.1
v -0.1 0 -0.1
v 0.1 0 -0.1
v 0.2 0 -0.1
v -0.3 0.3 0.2
v -0.2 0.3 0.2
v -0.1 0.3 0.2
v 0 0.3 0.2
v 0.1 0.3 0.2
v 0.2 0.3 0.2
v 0.3 0.3 0.2
v -0.3 0.3 0.1
v -0.2 0.3 0.1
v 0.2 0.3 0.1
v 0.3 0.3 0.1
v -0.5 0.3 -2.98023e-08
v -0.4 0.3 -2.98023e-08
v -0.3 0.3 -2.98023e-08
v -0.2 0.3 -2.98023e-08
v -0.1 0.3 -2.98023e-08
v 0.1 0.3 -2.98023e-08
v 0.2 0.3 -2.98023e-08
v 0.3 0.3 -2.98023e-08
v 0.4 0.3 -2.98023e-08
v -0.5 0.3 -0.1
v -0.4 0.3 -0.1
v -0.3 0.3 -0.1
v -0.2 0.3 -0.1
v -0.1 0.3 -0.1
v 0.1 0.3 -0.1
v 0.2 0.3 -0.1
v 0.3 0.3 -0.1
v 0.4 0.3 -0.1
v -0.3 0.3 -0.2
v -0.2 0.3 -0.2
v 0.2 0.3 -0.2
v 0.3 0.3 -0.2
v -0.3 0.3 -0.3
v -0.2 0.3 -0.3
v -0.1 0.3 -0.3
v 0 0.3 -0.3
v 0.1 0.3 -0.3
v 0.2 0.3 -0.3
v 0.3 0.3 -0.3
v 0.4 0.3 -0.3
v 0.5 0.3 -0.3
v 0.6 0.3 -0.3
v 0.3 0.3 -0.4
v 0.4 0.3 -0.4
v 0.5 0.3 -0.4
v 0.6 0.3 -0.4
v -0.4 0.4 -2.98023e-08
v -0.3 0.4 -2.98023e-08
v 0.4 0.4 -2.98023e-08
v 0.5 0.4 -2.98023e-08
v -0.4 0.4 -0.1
v -0.3 0.4 -0.1
v 0.4 0.4 -0.1
v 0.5 0.4 -0.1
v 0.6 0.4 -0.2
v 0.7 0.4 -0.2
v 0.2 0.4 -0.3
v 0.3 0.4 -0.3
v 0.4 0.4 -0.3
v 0.5 0.4 -0.3
v 0.6 0.4 -0.3
v 0.7 0.4 -0.3
v 0.2 0.4 -0.4
v 0.3 0.4 -0.4
v 0.4 0.4 -0.4
v 0.5 0.4 -0.4
v -0.3 0.5 0.1
v -0.2 0.5 0.1
v 0.2 0.5 0.1
v 0.3 0.5 0.1
v -0.3 0.5 -2.98023e-08
v -0.2 0.5 -2.98023e-08
v 0.2 0.5 -2.98023e-08
v 0.3 0.5 -2.98023e-08
v 0.4 0.5 -2.98023e-08
v -0.3 0.5 -0.1
v -0.2 0.5 -0.1
v 0.3 0.5 -0.1
v 0.4 0.5 -0.1
v 0.7 0.5 -0.1
v 0.8 0.5 -0.1
v 0.1 0.5 -0.2
v 0.2 0.5 -0.2
v 0.7 0.5 -0.2
v 0.8 0.5 -0.2
v 0.1 0.5 -0.3
v 0.2 0.5 -0.3
v 0.3 0.5 -0.3
v 0.4 0.5 -0.3
v 0.1 0.5 -0.4
v 0.2 0.5 -0.4
v 0.3 0.5 -0.4
v 0.4 0.5 -0.4
v -0.2 0.6 0.2
v -0.1 0.6 0.2
v 0.1 0.6 0.2
v 0.2 0.6 0.2
v -0.2 0.6 0.1
v -0.1 0.6 0.1
v 0.1 0.6 0.1
v 0.2 0.6 0.1
v 0.2 0.6 -2.98023e-08
v 0.3 0.6 -2.98023e-08
v 0.6 0.6 -2.98023e-08
v 0.7 0.6 -2.98023e-08
v -0.3 0.6 -0.1
v -0.2 0.6 -0.1
v 0.2 0.6 -0.1
v 0.3 0.6 -0.1
v 0.6 0.6 -0.1
v 0.7 0.6 -0.1
v -0.3 0.6 -0.2
v -0.2 0.6 -0.2
v -0.1 0.6 -0.2
v 0 0.6 -0.2
v 0.1 0.6 -0.2
v 0.4 0.6 -0.2
v 0.5 0.6 -0.2
v -0.2 0.6 -0.3
v -0.1 0.6 -0.3
v 0.1 0.6 -0.3
v 0.2 0.6 -0.3
v 0.3 0.6 -0.3
v 0.4 0.6 -0.3
v 0.5 0.6 -0.3
v -0.1 0.6 -0.4
v 0.1 0.6 -0.4
v 0.2 0.6 -0.4
v 0.3 0.6 -0.4
v -0.3 0.7 0.2
v -0.2 0.7 0.2
v 0.2 0.7 0.2
v 0.3 0.7 0.2
v -0.3 0.7 0.1
v -0.2 0.7 0.1
v 0.2 0.7 0.1
v 0.3 0.7 0.1
v 0.3 0.7 -0.1
v 0.4 0.7 -0.1
v -0.3 0.7 -0.2
v -0.2 0.7 -0.2
v 0.3 0.7 -0.2
v 0.4 0.7 -0.2
v -0.3 0.7 -0.3
v -0.2 0.7 -0.3
v -0.1 0.7 -0.3
v 0.1 0.7 -0.3
v 0.2 0.7 -0.3
v -0.2 0.7 -0.4
v -0.1 0.7 -0.4
v 0.1 0.7 -0.4
v 0.2 0.7 -0.4
v -0.4 0.8 0.1
v -0.3 0.8 0.1
v -0.2 0.8 0.1
v 0.2 0.8 0.1
v 0.3 0.8 0.1
v 0.4 0.8 0.1
v -0.3 0.8 -2.98023e-08
v -0.2 0.8 -2.98023e-08
v 0.2 0.8 -2.98023e-08
v 0.3 0.8 -2.98023e-08
v 0.3 0.8 -0.1
v 0.4 0.8 -0.1
v -0.4 0.8 -0.2
v -0.3 0.8 -0.2
v -0.2 0.8 -0.4
v -0.1 0.8 -0.4
v 0.1 0.8 -0.4
v 0.2 0.8 -0.4
v -0.2 0.8 -0.5
v -0.1 0.8 -0.5
v 0.1 0.8 -0.5
v 0.2 0.8 -0.5
v -0.4 0.9 0.2
v -0.3 0.9 0.2
v -0.1 0.9 0.2
v 0 0.9 0.2
v 0.3 0.9 0.2
v 0.4 0.9 0.2
v -0.4 0.9 0.1
v -0.3 0.9 0.1
v -0.1 0.9 0.1
v 0 0.9 0.1
v 0.3 0.9 0.1
v 0.4 0.9 0.1
v -0.7 0.9 -2.98023e-08
v -0.6 0.9 -2.98023e-08
v -0.5 0.9 -2.98023e-08
v -0.4 0.9 -2.98023e-08
v -0.7 0.9 -0.1
v -0.6 0.9 -0.1
v -0.5 0.9 -0.1
v -0.4 0.9 -0.1
v -0.4 0.9 -0.2
v -0.3 0.9 -0.2
v 0.3 0.9 -0.2
v 0.4 0.9 -0.2
v -0.4 0.9 -0.3
v -0.3 0.9 -0.3
v -0.2 0.9 -0.3
v -0.1 0.9 -0.3
v 0.1 0.9 -0.3
v 0.2 0.9 -0.3
v 0.3 0.9 -0.3
v 0.4 0.9 -0.3
v -0.3 0.9 -0.4
v -0.2 0.9 -0.4
v 0.2 0.9 -0.4
v 0.3 0.9 -0.4
v -0.1 0.9 -0.5
v 0.1 0.9 -0.5
v -0.3 1 0.3
v 0 1 0.3
v 0.3 1 0.3
v -0.3 1 0.2
v -0.2 1 0.2
v -0.1 1 0.2
v 0 1 0.2
v 0.2 1 0.2
v 0.3 1 0.2
v -0.4 1 0.1
v -0.3 1 0.1
v -0.2 1 0.1
v -0.1 1 0.1
v 0 1 0.1
v 0.2 1 0.1
v 0.3 1 0.1
v 0.4 1 0.1
v -0.4 1 -2.98023e-08
v -0.3 1 -2.98023e-08
v 0.3 1 -2.98023e-08
v 0.4 1 -2.98023e-08
v -0.4 1 -0.1
v -0.3 1 -0.1
v 0.3 1 -0.1
v 0.4 1 -0.1
v -0.4 1 -0.2
v -0.3 1 -0.2
v 0.3 1 -0.2
v 0.4 1 -0.2
v -0.4 1.1 -2.98023e-08
v -0.3 1.1 -2.98023e-08
v 0.3 1.1 -2.98023e-08
v 0.4 1.1 -2.98023e-08
v -0.4 1.1 -0.1
v -0.3 1.1 -0.1
v 0.3 1.1 -0.1
v 0.4 1.1 -0.1
v -0.4 1.2 0.1
v -0.3 1.2 0.1
v 0.3 1.2 0.1
v 0.4 1.2 0.1
v -0.4 1.2 -2.98023e-08
v -0.3 1.2 -2.98023e-08
v 0.3 1.2 -2.98023e-08
v 0.4 1.2 -2.98023e-08
v -0.4 1.2 -0.1
v -0.3 1.2 -0.1
v 0.3 1.2 -0.1
v 0.4 1.2 -0.1
v -0.4 1.2 -0.2
v -0.3 1.2 -0.2
v 0.3 1.2 -0.2
v 0.4 1.2 -0.2
v 0.4 1.3 -2.98023e-08
v 0.5 1.3 -2.98023e-08
v 0.4 1.3 -0.1
v 0.5 1.3 -0.1
v -0.3 0.4 0.2
v -0.2 0.4 0.2
v -0.1 0.4 0.2
v 0 0.4 0.2
v 0.1 0.4 0.2
v 0.2 0.4 0.2
v 0.3 0.4 0.2
v -0.3 0.4 0.1
v -0.2 0.4 0.1
v -0.1 0.4 0.1
v 0 0.4 0.1
v 0.1 0.4 0.1
v 0.2 0.4 0.1
v 0.3 0.4 0.1
v -0.5 0.4 -2.98023e-08
v -0.4 0.4 -2.98023e-08
v -0.3 0.4 -2.98023e-08
v -0.2 0.4 -2.98023e-08
v 0.2 0.4 -2.98023e-08
v 0.3 0.4 -2.98023e-08
v 0.4 0.4 -2.98023e-08
v -0.5 0.4 -0.1
v -0.4 0.4 -0.1
v -0.3 0.4 -0.1
v -0.2 0.4 -0.1
v 0.2 0.4 -0.1
v 0.3 0.4 -0.1
v 0.4 0.4 -0.1
v -0.3 0.4 -0.2
v -0.2 0.4 -0.2
v -0.1 0.4 -0.2
v 0 0.4 -0.2
v 0.1 0.4 -0.2
v 0.2 0.4 -0.2
v 0.3 0.4 -0.2
v -0.3 0.4 -0.3
v -0.2 0.4 -0.3
v -0.1 0.4 -0.3
v 0 0.4 -0.3
v 0.1 0.4 -0.3
v 0.2 0.4 -0.3
v 0.3 0.4 -0.3
v 0.4 0.4 -0.3
v 0.5 0.4 -0.3
v 0.6 0.4 -0.3
v 0.3 0.4 -0.4
v 0.4 0.4 -0.4
v 0.5 0.4 -0.4
v 0.6 0.4 -0.4
v -0.4 0.5 -2.98023e-08
v -0.3 0.5 -2.98023e-08
v 0.4 0.5 -2.98023e-08
v 0.5 0.5 -2.98023e-08
v -0.4 0.5 -0.1
v -0.3 0.5 -0.1
v 0.4 0.5 -0.1
v 0.5 0.5 -0.1
v 0.6 0.5 -0.2
v 0.7 0.5 -0.2
v 0.2 0.5 -0.3
v 0.3 0.5 -0.3
v 0.4 0.5 -0.3
v 0.5 0.5 -0.3
v 0.6 0.5 -0.3
v 0.7 0.5 -0.3
v 0.2 0.5 -0.4
v 0.3 0.5 -0.4
v 0.4 0.5 -0.4
v 0.5 0.5 -0.4
v 0.3 0.6 -2.98023e-08
v 0.4 0.6 -2.98023e-08
v 0.3 0.6 -0.1
v 0.4 0.6 -0.1
v 0.7 0.6 -0.1
v 0.8 0.6 -0.1
v 0.7 0.6 -0.2
v 0.8 0.6 -0.2
v 0.1 0.6 -0.3
v 0.2 0.6 -0.3
v 0.3 0.6 -0.3
v 0.4 0.6 -0.3
v 0.1 0.6 -0.4
v 0.2 0.6 -0.4
v 0.3 0.6 -0.4
v 0.4 0.6 -0.4
v -0.2 0.7 0.2
v -0.1 0.7 0.2
v 0.1 0.7 0.2
v 0.2 0.7 0.2
v -0.3 0.7 0.1
v -0.2 0.7 0.1
v -0.1 0.7 0.1
v 0.1 0.7 0.1
v 0.2 0.7 0.1
v 0.3 0.7 0.1
v -0.3 0.7 -2.98023e-08
v -0.2 0.7 -2.98023e-08
v 0.2 0.7 -2.98023e-08
v 0.3 0.7 -2.98023e-08
v 0.6 0.7 -2.98023e-08
v 0.7 0.7 -2.98023e-08
v 0.6 0.7 -0.1
v 0.7 0.7 -0.1
v 0.4 0.7 -0.2
v 0.5 0.7 -0.2
v -0.1 0.7 -0.3
v 0.1 0.7 -0.3
v 0.2 0.7 -0.3
v 0.3 0.7 -0.3
v 0.4 0.7 -0.3
v 0.5 0.7 -0.3
v -0.1 0.7 -0.4
v 0.1 0.7 -0.4
v 0.2 0.7 -0.4
v 0.3 0.7 -0.4
v -0.4 0.9 0.1
v -0.3 0.9 0.1
v 0.3 0.9 0.1
v 0.4 0.9 0.1
v -0.4 0.9 -2.98023e-08
v -0.3 0.9 -2.98023e-08
v 0.3 0.9 -2.98023e-08
v 0.4 0.9 -2.98023e-08
v -0.4 0.9 -0.1
v -0.3 0.9 -0.1
v 0.3 0.9 -0.1
v 0.4 0.9 -0.1
v -0.4 0.9 -0.2
v -0.3 0.9 -0.2
v 0.3 0.9 -0.2
v 0.4 0.9 -0.2
v -0.4 1 -2.98023e-08
v -0.3 1 -2.98023e-08
v 0.3 1 -2.98023e-08
v 0.4 1 -2.98023e-08
v -0.4 1 -0.1
v -0.3 1 -0.1
v 0.3 1 -0.1
v 0.4 1 -0.1
v -0.4 1.1 0.1
v -0.3 1.1 0.1
v 0.3 1.1 0.1
v 0.4 1.1 0.1
v -0.4 1.1 -2.98023e-08
v -0.3 1.1 -2.98023e-08
v 0.3 1.1 -2.98023e-08
v 0.4 1.1 -2.98023e-08
v -0.4 1.1 -0.1
v -0.3 1.1 -0.1
v 0.3 1.1 -0.1
v 0.4 1.1 -0.1
v -0.4 1.1 -0.2
v -0.3 1.1 -0.2
v 0.3 1.1 -0.2
v 0.4 1.1 -0.2
v -0.2 1.1 -0.4
v 0.2 1.1 -0.4
v -0.2 1.1 -0.5
v 0.2 1.1 -0.5
v -0.3 1.2 0.3
v 0 1.2 0.3
v 0.2 1.2 0.3
v 0.3 1.2 0.3
v -0.4 1.2 0.2
v -0.3 1.2 0.2
v -0.2 1.2 0.2
v 0 1.2 0.2
v 0.2 1.2 0.2
v 0.3 1.2 0.2
v 0.4 1.2 0.2
v -0.4 1.2 0.1
v -0.3 1.2 0.1
v 0.3 1.2 0.1
v 0.4 1.2 0.1
v -0.4 1.2 -0.2
v -0.3 1.2 -0.2
v 0.3 1.2 -0.2
v 0.4 1.2 -0.2
v -0.4 1.2 -0.3
v -0.3 1.2 -0.3
v 0.3 1.2 -0.3
v 0.4 1.2 -0.3
v -0.3 1.2 -0.4
v 0.3 1.2 -0.4
v -0.3 1.3 0.2
v -0.2 1.3 0.2
v 0.3 1.3 0.2
v -0.4 1.3 0.1
v -0.3 1.3 0.1
v -0.2 1.3 0.1
v -0.1 1.3 0.1
v 0.2 1.3 0.1
v 0.3 1.3 0.1
v 0.4 1.3 0.1
v -0.7 1.3 -2.98023e-08
v -0.6 1.3 -2.98023e-08
v -0.5 1.3 -2.98023e-08
v -0.4 1.3 -2.98023e-08
v -0.3 1.3 -2.98023e-08
v 0.3 1.3 -2.98023e-08
v 0.4 1.3 -2.98023e-08
v -0.7 1.3 -0.1
v -0.6 1.3 -0.1
v -0.5 1.3 -0.1
v -0.4 1.3 -0.1
v -0.3 1.3 -0.1
v 0.2 1.3 -0.1
v 0.3 1.3 -0.1
v 0.4 1.3 -0.1
v -0.4 1.3 -0.2
v -0.3 1.3 -0.2
v -0.2 1.3 -0.2
v -0.1 1.3 -0.2
v 0.2 1.3 -0.2
v 0.3 1.3 -0.2
v 0.4 1.3 -0.2
v -0.3 1.3 -0.3
v 0.3 1.3 -0.3
v -0.2 1.4 0.1
v -0.1 1.4 0.1
v 0.2 1.4 0.1
v -0.4 1.4 -2.98023e-08
v -0.3 1.4 -2.98023e-08
v 0.3 1.4 -2.98023e-08
v 0.4 1.4 -2.98023e-08
v -0.4 1.4 -0.1
v -0.3 1.4 -0.1
v 0.3 1.4 -0.1
v 0.4 1.4 -0.1
v -0.2 1.4 -0.2
v -0.1 1.4 -0.2
v 0.2 1.4 -0.2
v -0.5 1.5 -2.98023e-08
v -0.4 1.5 -2.98023e-08
v 0.4 1.5 -2.98023e-08
v 0.5 1.5 -2.98023e-08
v -0.5 1.5 -0.1
v -0.4 1.5 -0.1
v 0.4 1.5 -0.1
v 0.5 1.5 -0.1

# faces
f 3/17/1 2/17/1 1/17/1
f 4/17/1 2/17/1 3/17/1
f 5/6/1 4/6/1 3/6/1
f 6/6/1 4/6/1 5/6/1
f 7/5/1 6/5/1 5/5/1
f 8/5/1 6/5/1 7/5/1
f 11/7/1 10/7/1 9/7/1
f 12/7/1 10/7/1 11/7/1
f 13/17/1 12/17/1 11/17/1
f 14/17/1 12/17/1 13/17/1
f 17/17/1 16/17/1 15/17/1
f 18/17/1 16/17/1 17/17/1
f 19/16/1 18/16/1 17/16/1
f 20/16/1 18/16/1 19/16/1
f 23/9/1 22/9/1 21/9/1
f 24/9/1 22/9/1 23/9/1
f 28/17/1 26/17/1 25/17/1
f 29/17/1 26/17/1 28/17/1
f 30/17/1 26/17/1 29/17/1
f 31/17/1 26/17/1 30/17/1
f 33/17/1 28/17/1 27/17/1
f 36/17/1 32/17/1 31/17/1
f 37/17/1 34/17/1 33/17/1
f 37/17/1 33/17/1 27/17/1
f 38/17/1 34/17/1 37/17/1
f 39/17/1 36/17/1 35/17/1
f 40/17/1 32/17/1 36/17/1
f 40/17/1 36/17/1 39/17/1
f 41/17/1 37/17/1 27/17/1
f 42/17/1 37/17/1 41/17/1
f 45/17/1 32/17/1 40/17/1
f 46/17/1 32/17/1 45/17/1
f 47/17/1 43/17/1 42/17/1
f 48/17/1 43/17/1 47/17/1
f 49/17/1 45/17/1 44/17/1
f 50/17/1 45/17/1 49/17/1
f 57/9/1 52/9/1 51/9/1
f 58/8/1 53/8/1 52/8/1
f 58/9/1 52/9/1 57/9/1
f 59/9/1 54/9/1 53/9/1
f 59/8/1 53/8/1 58/8/1
f 60/8/1 55/8/1 54/8/1
f 60/9/1 54/9/1 59/9/1
f 61/9/1 56/9/1 55/9/1
f 61/8/1 55/8/1 60/8/1
f 62/9/1 56/9/1 61/9/1
f 66/10/1 64/10/1 63/10/1
f 66/1/1 65/1/1 64/1/1
f 67/1/1 65/1/1 66/1/1
f 70/10/1 66/10/1 63/10/1
f 71/9/1 67/9/1 66/9/1
f 71/10/1 66/10/1 70/10/1
f 72/10/1 68/10/1 67/10/1
f 72/9/1 67/9/1 71/9/1
f 73/10/1 68/10/1 72/10/1
f 75/10/1 70/10/1 69/10/1
f 76/10/1 74/10/1 73/10/1
f 76/10/1 73/10/1 72/10/1
f 76/10/1 72/10/1 71/10/1
f 77/10/1 74/10/1 76/10/1
f 78/10/1 74/10/1 77/10/1
f 79/10/1 75/10/1 69/10/1
f 80/10/1 75/10/1 79/10/1
f 83/16/1 78/16/1 77/16/1
f 84/16/1 78/16/1 83/16/1
f 88/10/1 81/10/1 80/10/1
f 89/10/1 81/10/1 88/10/1
f 90/10/1 83/10/1 82/10/1
f 91/10/1 83/10/1 90/10/1
f 93/16/1 90/16/1 89/16/1
f 94/16/1 90/16/1 93/16/1
f 96/15/1 87/15/1 86/15/1
f 97/15/1 87/15/1 96/15/1
f 98/16/1 93/16/1 92/16/1
f 99/16/1 93/16/1 98/16/1
f 100/17/1 95/17/1 94/17/1
f 101/17/1 95/17/1 100/17/1
f 102/17/1 85/17/1 84/17/1
f 103/17/1 85/17/1 102/17/1
f 104/17/1 98/17/1 97/17/1
f 105/17/1 98/17/1 104/17/1
f 106/17/1 102/17/1 101/17/1
f 107/17/1 102/17/1 106/17/1
f 110/7/1 109/7/1 108/7/1
f 111/7/1 109/7/1 110/7/1
f 112/1/1 111/1/1 110/1/1
f 113/1/1 111/1/1 112/1/1
f 118/8/1 115/8/1 114/8/1
f 119/9/1 116/9/1 115/9/1
f 119/8/1 115/8/1 118/8/1
f 120/8/1 117/8/1 116/8/1
f 120/9/1 116/9/1 119/9/1
f 123/8/1 117/8/1 120/8/1
f 124/8/1 117/8/1 123/8/1
f 126/10/1 122/10/1 121/10/1
f 127/10/1 122/10/1 126/10/1
f 129/10/1 125/10/1 124/10/1
f 130/10/1 125/10/1 129/10/1
f 132/2/1 128/2/1 127/2/1
f 133/2/1 128/2/1 132/2/1
f 134/10/1 131/10/1 130/10/1
f 135/10/1 131/10/1 134/10/1
f 137/17/1 136/17/1 135/17/1
f 137/17/1 135/17/1 134/17/1
f 138/17/1 136/17/1 137/17/1
f 139/17/1 136/17/1 138/17/1
f 140/17/1 136/17/1 139/17/1
f 143/17/1 142/17/1 141/17/1
f 144/17/1 142/17/1 143/17/1
f 147/10/1 146/10/1 145/10/1
f 148/10/1 146/10/1 147/10/1
f 151/10/1 150/10/1 149/10/1
f 152/10/1 150/10/1 151/10/1
f 155/7/1 154/7/1 153/7/1
f 156/7/1 154/7/1 155/7/1
f 157/1/1 156/1/1 155/1/1
f 158/1/1 156/1/1 157/1/1
f 164/9/1 160/9/1 159/9/1
f 165/10/1 161/10/1 160/10/1
f 165/9/1 160/9/1 164/9/1
f 166/10/1 161/10/1 165/10/1
f 167/10/1 163/10/1 162/10/1
f 168/10/1 163/10/1 167/10/1
f 171/10/1 170/10/1 169/10/1
f 172/10/1 170/10/1 171/10/1
f 174/17/1 172/17/1 171/17/1
f 174/17/1 173/17/1 172/17/1
f 175/17/1 173/17/1 174/17/1
f 178/10/1 177/10/1 176/10/1
f 179/10/1 177/10/1 178/10/1
f 184/10/1 181/10/1 180/10/1
f 185/10/1 181/10/1 184/10/1
f 186/10/1 183/10/1 182/10/1
f 187/10/1 186/10/1 182/10/1
f 188/10/1 187/10/1 182/10/1
f 189/10/1 187/10/1 188/10/1
f 192/10/1 191/10/1 190/10/1
f 193/10/1 191/10/1 192/10/1
f 198/1/1 195/1/1 194/1/1
f 199/1/1 195/1/1 198/1/1
f 200/10/1 197/10/1 196/10/1
f 201/10/1 197/10/1 200/10/1
f 204/16/1 203/16/1 202/16/1
f 205/16/1 203/16/1 204/16/1
f 210/1/1 207/1/1 206/1/1
f 211/1/1 207/1/1 210/1/1
f 212/10/1 209/10/1 208/10/1
f 213/10/1 209/10/1 212/10/1
f 216/10/1 215/10/1 214/10/1
f 217/10/1 215/10/1 216/10/1
f 220/15/1 219/15/1 218/15/1
f 221/15/1 219/15/1 220/15/1
f 224/10/1 223/10/1 222/10/1
f 225/10/1 223/10/1 224/10/1
f 228/10/1 227/10/1 226/10/1
f 229/10/1 227/10/1 228/10/1
f 232/10/1 231/10/1 230/10/1
f 233/10/1 231/10/1 232/10/1
f 236/10/1 235/10/1 234/10/1
f 237/10/1 235/10/1 236/10/1
f 238/7/2 239/7/2 240/7/2
f 240/7/2 239/7/2 241/7/2
f 242/7/2 243/7/2 244/7/2
f 244/7/2 243/7/2 245/7/2
f 244/17/2 245/17/2 246/17/2
f 246/17/2 245/17/2 247/17/2
f 248/1/2 249/1/2 250/1/2
f 250/1/2 249/1/2 251/1/2
f 252/15/2 253/15/2 254/15/2
f 254/15/2 253/15/2 255/15/2
f 256/16/2 257/16/2 258/16/2
f 258/16/2 257/16/2 259/16/2
f 260/9/2 261/9/2 262/9/2
f 262/9/2 261/9/2 263/9/2
f 264/17/2 265/17/2 266/17/2
f 266/17/2 265/17/2 267/17/2
f 268/10/2 269/10/2 270/10/2
f 268/10/2 270/10/2 271/10/2
f 268/10/2 271/10/2 272/10/2
f 272/10/2 271/10/2 273/10/2
f 274/7/2 275/7/2 276/7/2
f 276/7/2 275/7/2 277/7/2
f 276/1/2 277/1/2 278/1/2
f 278/1/2 277/1/2 279/1/2
f 280/10/2 281/10/2 282/10/2
f 282/10/2 281/10/2 283/10/2
f 284/10/2 285/10/2 286/10/2
f 286/10/2 285/10/2 287/10/2
f 286/17/2 287/17/2 289/17/2
f 287/17/2 288/17/2 289/17/2
f 289/17/2 288/17/2 290/17/2
f 291/10/2 292/10/2 293/10/2
f 293/10/2 292/10/2 294/10/2
f 295/10/2 296/10/2 297/10/2
f 297/10/2 296/10/2 298/10/2
f 299/7/2 300/7/2 301/7/2
f 301/7/2 300/7/2 302/7/2
f 301/1/2 302/1/2 303/1/2
f 303/1/2 302/1/2 304/1/2
f 305/9/2 306/9/2 309/9/2
f 306/8/2 307/8/2 310/8/2
f 309/9/2 306/9/2 310/9/2
f 307/9/2 308/9/2 311/9/2
f 310/8/2 307/8/2 311/8/2
f 311/9/2 308/9/2 312/9/2
f 310/9/2 311/9/2 317/9/2
f 311/9/2 312/9/2 317/9/2
f 312/9/2 313/9/2 317/9/2
f 317/9/2 313/9/2 318/9/2
f 313/10/2 314/10/2 319/10/2
f 318/9/2 313/9/2 319/9/2
f 319/10/2 314/10/2 320/10/2
f 315/10/2 316/10/2 321/10/2
f 321/10/2 316/10/2 322/10/2
f 322/1/2 323/1/2 326/1/2
f 326/1/2 323/1/2 327/1/2
f 324/10/2 325/10/2 328/10/2
f 328/10/2 325/10/2 329/10/2
f 328/17/2 329/17/2 331/17/2
f 329/17/2 330/17/2 331/17/2
f 331/17/2 330/17/2 332/17/2
f 332/17/2 330/17/2 333/17/2
f 333/17/2 330/17/2 334/17/2
f 335/16/2 336/16/2 338/16/2
f 336/16/2 337/16/2 338/16/2
f 338/16/2 337/16/2 339/16/2
f 340/8/2 341/8/2 346/8/2
f 341/9/2 342/9/2 347/9/2
f 346/8/2 341/8/2 347/8/2
f 347/9/2 342/9/2 348/9/2
f 343/9/2 344/9/2 349/9/2
f 344/8/2 345/8/2 350/8/2
f 349/9/2 344/9/2 350/9/2
f 350/8/2 345/8/2 351/8/2
f 351/10/2 352/10/2 355/10/2
f 355/10/2 352/10/2 356/10/2
f 353/10/2 354/10/2 357/10/2
f 353/10/2 357/10/2 362/10/2
f 357/9/2 358/9/2 363/9/2
f 362/10/2 357/10/2 363/10/2
f 359/10/2 360/10/2 364/10/2
f 363/9/2 358/9/2 364/9/2
f 358/10/2 359/10/2 364/10/2
f 364/10/2 360/10/2 365/10/2
f 365/10/2 360/10/2 366/10/2
f 366/10/2 360/10/2 367/10/2
f 361/10/2 362/10/2 368/10/2
f 363/10/2 364/10/2 369/10/2
f 369/10/2 364/10/2 370/10/2
f 365/10/2 366/10/2 371/10/2
f 371/10/2 366/10/2 372/10/2
f 361/10/2 368/10/2 373/10/2
f 373/10/2 368/10/2 374/10/2
f 371/16/2 372/16/2 377/16/2
f 377/16/2 372/16/2 378/16/2
f 374/10/2 375/10/2 382/10/2
f 382/10/2 375/10/2 383/10/2
f 376/10/2 377/10/2 384/10/2
f 384/10/2 377/10/2 385/10/2
f 380/14/2 381/14/2 386/14/2
f 386/14/2 381/14/2 387/14/2
f 383/16/2 384/16/2 389/16/2
f 389/16/2 384/16/2 390/16/2
f 386/13/2 387/13/2 392/13/2
f 392/13/2 387/13/2 393/13/2
f 388/16/2 389/16/2 394/16/2
f 394/16/2 389/16/2 395/16/2
f 390/16/2 391/16/2 396/16/2
f 396/16/2 391/16/2 397/16/2
f 378/17/2 379/17/2 398/17/2
f 398/17/2 379/17/2 399/17/2
f 393/16/2 394/16/2 400/16/2
f 400/16/2 394/16/2 401/16/2
f 397/17/2 398/17/2 402/17/2
f 402/17/2 398/17/2 403/17/2
f 404/1/2 405/1/2 408/1/2
f 408/1/2 405/1/2 409/1/2
f 406/10/2 407/10/2 410/10/2
f 410/10/2 407/10/2 411/10/2
f 412/1/2 413/1/2 416/1/2
f 416/1/2 413/1/2 417/1/2
f 414/10/2 415/10/2 418/10/2
f 418/10/2 415/10/2 419/10/2
f 420/10/2 421/10/2 423/10/2
f 423/10/2 421/10/2 424/10/2
f 422/16/2 423/16/2 426/16/2
f 423/16/2 424/16/2 426/16/2
f 426/16/2 424/16/2 427/16/2
f 427/16/2 424/16/2 428/16/2
f 428/16/2 424/16/2 429/16/2
f 425/16/2 426/16/2 431/16/2
f 427/16/2 428/16/2 432/16/2
f 432/16/2 428/16/2 433/16/2
f 429/16/2 430/16/2 434/16/2
f 425/16/2 431/16/2 435/16/2
f 431/16/2 432/16/2 435/16/2
f 435/16/2 432/16/2 436/16/2
f 433/16/2 434/16/2 437/16/2
f 434/16/2 430/16/2 438/16/2
f 437/16/2 434/16/2 438/16/2
f 425/16/2 435/16/2 439/16/2
f 439/16/2 435/16/2 440/16/2
f 436/16/2 437/16/2 441/16/2
f 441/16/2 437/16/2 442/16/2
f 438/16/2 430/16/2 443/16/2
f 443/16/2 430/16/2 444/16/2
f 441/16/2 442/16/2 445/16/2
f 442/16/2 443/16/2 445/16/2
f 440/16/2 441/16/2 445/16/2
f 445/16/2 443/16/2 446/16/2
f 446/16/2 443/16/2 447/16/2
f 447/16/2 443/16/2 448/16/2
f 449/1/2 450/1/2 453/1/2
f 453/1/2 450/1/2 454/1/2
f 451/10/2 452/10/2 455/10/2
f 455/10/2 452/10/2 456/10/2
f 457/10/2 458/10/2 459/10/2
f 459/10/2 458/10/2 460/10/2
f 461/16/2 462/16/2 463/16/2
f 463/16/2 462/16/2 464/16/2
f 463/15/2 464/15/2 465/15/2
f 465/15/2 464/15/2 466/15/2
f 467/10/2 468/10/2 469/10/2
f 469/10/2 468/10/2 470/10/2
f 471/10/2 472/10/2 473/10/2
f 473/10/2 472/10/2 474/10/2
f 475/10/2 476/10/2 477/10/2
f 477/10/2 476/10/2 478/10/2
f 479/10/2 480/10/2 481/10/2
f 481/10/2 480/10/2 482/10/2
f 485/15/3 484/15/3 483/15/3
f 486/15/3 484/15/3 485/15/3
f 487/14/3 486/14/3 485/14/3
f 488/14/3 486/14/3 487/14/3
f 489/14/3 487/14/3 485/14/3
f 490/13/3 488/13/3 487/13/3
f 490/14/3 487/14/3 489/14/3
f 491/13/3 488/13/3 490/13/3
f 497/17/3 493/17/3 492/17/3
f 498/17/3 493/17/3 497/17/3
f 499/17/3 493/17/3 498/17/3
f 501/9/3 495/9/3 494/9/3
f 502/9/3 495/9/3 501/9/3
f 504/10/3 497/10/3 496/10/3
f 504/10/3 498/10/3 497/10/3
f 505/10/3 498/10/3 504/10/3
f 506/17/3 500/17/3 499/17/3
f 507/17/3 500/17/3 506/17/3
f 508/8/3 502/8/3 501/8/3
f 509/8/3 502/8/3 508/8/3
f 510/10/3 504/10/3 503/10/3
f 511/10/3 504/10/3 510/10/3
f 514/9/3 509/9/3 508/9/3
f 515/9/3 509/9/3 514/9/3
f 516/10/3 513/10/3 512/10/3
f 517/10/3 513/10/3 516/10/3
f 518/16/3 507/16/3 506/16/3
f 519/8/3 515/8/3 514/8/3
f 520/8/3 515/8/3 519/8/3
f 523/9/3 520/9/3 519/9/3
f 524/9/3 520/9/3 523/9/3
f 525/10/3 522/10/3 521/10/3
f 526/10/3 522/10/3 525/10/3
f 528/16/3 507/16/3 518/16/3
f 529/8/3 524/8/3 523/8/3
f 530/8/3 524/8/3 529/8/3
f 531/10/3 527/10/3 526/10/3
f 532/10/3 527/10/3 531/10/3
f 533/10/3 527/10/3 532/10/3
f 535/16/3 507/16/3 528/16/3
f 536/16/3 507/16/3 535/16/3
f 537/16/3 534/16/3 533/16/3
f 537/16/3 535/16/3 534/16/3
f 537/16/3 533/16/3 532/16/3
f 538/16/3 535/16/3 537/16/3
f 545/17/3 540/17/3 539/17/3
f 546/17/3 540/17/3 545/17/3
f 547/17/3 542/17/3 541/17/3
f 548/17/3 542/17/3 547/17/3
f 550/10/3 544/10/3 543/10/3
f 551/10/3 544/10/3 550/10/3
f 552/10/3 544/10/3 551/10/3
f 558/8/3 550/8/3 549/8/3
f 558/8/3 551/8/3 550/8/3
f 559/8/3 551/8/3 558/8/3
f 560/2/3 553/2/3 552/2/3
f 561/18/3 554/18/3 553/18/3
f 561/2/3 553/2/3 560/2/3
f 562/10/3 555/10/3 554/10/3
f 562/18/3 554/18/3 561/18/3
f 563/10/3 555/10/3 562/10/3
f 564/17/3 557/17/3 556/17/3
f 565/17/3 557/17/3 564/17/3
f 566/9/3 559/9/3 558/9/3
f 567/8/3 560/8/3 559/8/3
f 567/9/3 559/9/3 566/9/3
f 568/2/3 561/2/3 560/2/3
f 568/8/3 560/8/3 567/8/3
f 569/1/3 562/1/3 561/1/3
f 569/2/3 561/2/3 568/2/3
f 570/1/3 562/1/3 569/1/3
f 572/8/3 567/8/3 566/8/3
f 572/8/3 568/8/3 567/8/3
f 573/8/3 568/8/3 572/8/3
f 574/8/3 568/8/3 573/8/3
f 575/1/3 570/1/3 569/1/3
f 575/8/3 568/8/3 574/8/3
f 575/1/3 569/1/3 568/1/3
f 576/1/3 570/1/3 575/1/3
f 577/10/3 571/10/3 570/10/3
f 577/1/3 570/1/3 576/1/3
f 578/9/3 573/9/3 572/9/3
f 579/8/3 574/8/3 573/8/3
f 579/9/3 573/9/3 578/9/3
f 580/8/3 574/8/3 579/8/3
f 581/1/3 576/1/3 575/1/3
f 582/18/3 577/18/3 576/18/3
f 582/1/3 576/1/3 581/1/3
f 583/10/3 571/10/3 577/10/3
f 583/18/3 577/18/3 582/18/3
f 584/10/3 571/10/3 583/10/3
f 585/16/3 565/16/3 564/16/3
f 586/16/3 565/16/3 585/16/3
f 587/10/3 580/10/3 579/10/3
f 587/10/3 581/10/3 580/10/3
f 588/10/3 581/10/3 587/10/3
f 593/16/3 590/16/3 589/16/3
f 594/16/3 590/16/3 593/16/3
f 595/16/3 592/16/3 591/16/3
f 596/16/3 592/16/3 595/16/3
f 603/17/3 598/17/3 597/17/3
f 604/17/3 598/17/3 603/17/3
f 605/6/3 599/6/3 598/6/3
f 605/17/3 598/17/3 604/17/3
f 606/5/3 600/5/3 599/5/3
f 606/6/3 599/6/3 605/6/3
f 607/5/3 600/5/3 606/5/3
f 608/7/3 602/7/3 601/7/3
f 609/7/3 602/7/3 608/7/3
f 610/7/3 602/7/3 609/7/3
f 611/17/3 603/17/3 602/17/3
f 611/7/3 602/7/3 610/7/3
f 612/16/3 604/16/3 603/16/3
f 612/17/3 603/17/3 611/17/3
f 613/12/3 605/12/3 604/12/3
f 613/16/3 604/16/3 612/16/3
f 614/4/3 606/4/3 605/4/3
f 614/12/3 605/12/3 613/12/3
f 615/6/3 607/6/3 606/6/3
f 615/4/3 606/4/3 614/4/3
f 616/6/3 607/6/3 615/6/3
f 619/1/3 610/1/3 609/1/3
f 620/1/3 610/1/3 619/1/3
f 622/16/3 613/16/3 612/16/3
f 623/15/3 614/15/3 613/15/3
f 623/16/3 613/16/3 622/16/3
f 624/11/3 615/11/3 614/11/3
f 624/15/3 614/15/3 623/15/3
f 625/13/3 616/13/3 615/13/3
f 625/11/3 615/11/3 624/11/3
f 626/17/3 617/17/3 616/17/3
f 626/13/3 616/13/3 625/13/3
f 627/16/3 618/16/3 617/16/3
f 627/17/3 617/17/3 626/17/3
f 628/16/3 618/16/3 627/16/3
f 629/9/3 621/9/3 620/9/3
f 630/9/3 621/9/3 629/9/3
f 633/17/3 623/17/3 622/17/3
f 634/17/3 623/17/3 633/17/3
f 635/17/3 625/17/3 624/17/3
f 636/17/3 625/17/3 635/17/3
f 637/17/3 627/17/3 626/17/3
f 638/17/3 627/17/3 637/17/3
f 642/10/3 632/10/3 631/10/3
f 643/10/3 632/10/3 642/10/3
f 644/7/3 640/7/3 639/7/3
f 645/1/3 641/1/3 640/1/3
f 645/7/3 640/7/3 644/7/3
f 646/1/3 641/1/3 645/1/3
f 650/7/3 648/7/3 647/7/3
f 651/1/3 649/1/3 648/1/3
f 651/7/3 648/7/3 650/7/3
f 652/1/3 649/1/3 651/1/3
f 659/10/3 654/10/3 653/10/3
f 660/10/3 654/10/3 659/10/3
f 667/1/3 656/1/3 655/1/3
f 668/1/3 656/1/3 667/1/3
f 669/1/3 658/1/3 657/1/3
f 670/1/3 658/1/3 669/1/3
f 671/16/3 662/16/3 661/16/3
f 672/16/3 662/16/3 671/16/3
f 673/16/3 664/16/3 663/16/3
f 674/16/3 664/16/3 673/16/3
f 675/16/3 666/16/3 665/16/3
f 676/16/3 666/16/3 675/16/3
f 678/1/3 669/1/3 668/1/3
f 679/1/3 669/1/3 678/1/3
f 680/16/3 676/16/3 675/16/3
f 681/15/3 677/15/3 676/15/3
f 681/16/3 676/16/3 680/16/3
f 682/15/3 677/15/3 681/15/3
f 685/10/3 684/10/3 683/10/3
f 686/10/3 684/10/3 685/10/3
f 689/17/3 688/17/3 687/17/3
f 690/17/3 688/17/3 689/17/3
f 695/10/3 692/10/3 691/10/3
f 696/10/3 692/10/3 695/10/3
f 697/16/3 694/16/3 693/16/3
f 698/16/3 694/16/3 697/16/3
f 701/10/3 700/10/3 699/10/3
f 702/10/3 700/10/3 701/10/3
f 707/17/3 704/17/3 703/17/3
f 708/17/3 704/17/3 707/17/3
f 709/17/3 706/17/3 705/17/3
f 710/17/3 706/17/3 709/17/3
f 717/16/3 712/16/3 711/16/3
f 718/16/3 712/16/3 717/16/3
f 719/16/3 714/16/3 713/16/3
f 720/16/3 714/16/3 719/16/3
f 721/10/3 716/10/3 715/10/3
f 722/10/3 716/10/3 721/10/3
f 725/10/3 724/10/3 723/10/3
f 726/10/3 724/10/3 725/10/3
f 730/10/3 728/10/3 727/10/3
f 731/10/3 728/10/3 730/10/3
f 733/10/3 730/10/3 729/10/3
f 734/10/3 730/10/3 733/10/3
f 735/10/3 732/10/3 731/10/3
f 736/10/3 732/10/3 735/10/3
f 738/10/3 735/10/3 734/10/3
f 739/10/3 735/10/3 738/10/3
f 740/10/3 738/10/3 737/10/3
f 741/10/3 738/10/3 740/10/3
f 742/17/4 743/17/4 748/17/4
f 748/17/4 743/17/4 749/17/4
f 744/17/4 745/17/4 750/17/4
f 750/17/4 745/17/4 751/17/4
f 746/10/4 747/10/4 752/10/4
f 752/10/4 747/10/4 753/10/4
f 754/10/4 755/10/4 756/10/4
f 756/10/4 755/10/4 757/10/4
f 758/16/4 759/16/4 762/16/4
f 762/16/4 759/16/4 763/16/4
f 760/16/4 761/16/4 764/16/4
f 764/16/4 761/16/4 765/16/4
f 766/17/4 767/17/4 768/17/4
f 768/17/4 767/17/4 769/17/4
f 770/10/4 771/10/4 772/10/4
f 772/10/4 771/10/4 773/10/4
f 774/16/4 775/16/4 776/16/4
f 776/16/4 775/16/4 777/16/4
f 778/17/4 779/17/4 784/17/4
f 784/17/4 779/17/4 785/17/4
f 779/6/4 780/6/4 786/6/4
f 785/17/4 779/17/4 786/17/4
f 780/5/4 781/5/4 787/5/4
f 786/6/4 780/6/4 787/6/4
f 787/5/4 781/5/4 788/5/4
f 782/7/4 783/7/4 789/7/4
f 789/7/4 783/7/4 790/7/4
f 790/7/4 783/7/4 791/7/4
f 783/17/4 784/17/4 792/17/4
f 791/7/4 783/7/4 792/7/4
f 784/16/4 785/16/4 793/16/4
f 792/17/4 784/17/4 793/17/4
f 785/12/4 786/12/4 794/12/4
f 793/16/4 785/16/4 794/16/4
f 786/4/4 787/4/4 795/4/4
f 794/12/4 786/12/4 795/12/4
f 787/6/4 788/6/4 796/6/4
f 795/4/4 787/4/4 796/4/4
f 796/6/4 788/6/4 797/6/4
f 790/1/4 791/1/4 800/1/4
f 800/1/4 791/1/4 801/1/4
f 793/16/4 794/16/4 803/16/4
f 794/15/4 795/15/4 804/15/4
f 803/16/4 794/16/4 804/16/4
f 795/11/4 796/11/4 805/11/4
f 804/15/4 795/15/4 805/15/4
f 796/13/4 797/13/4 806/13/4
f 805/11/4 796/11/4 806/11/4
f 797/17/4 798/17/4 807/17/4
f 806/13/4 797/13/4 807/13/4
f 798/16/4 799/16/4 808/16/4
f 807/17/4 798/17/4 808/17/4
f 808/16/4 799/16/4 809/16/4
f 801/9/4 802/9/4 810/9/4
f 810/9/4 802/9/4 811/9/4
f 803/17/4 804/17/4 813/17/4
f 813/17/4 804/17/4 814/17/4
f 805/17/4 806/17/4 815/17/4
f 815/17/4 806/17/4 816/17/4
f 807/17/4 808/17/4 817/17/4
f 817/17/4 808/17/4 818/17/4
f 811/1/4 812/1/4 822/1/4
f 822/1/4 812/1/4 823/1/4
f 819/7/4 820/7/4 824/7/4
f 820/1/4 821/1/4 825/1/4
f 824/7/4 820/7/4 825/7/4
f 825/1/4 821/1/4 826/1/4
f 827/7/4 828/7/4 830/7/4
f 828/1/4 829/1/4 831/1/4
f 830/7/4 828/7/4 831/7/4
f 831/1/4 829/1/4 832/1/4
f 833/1/4 834/1/4 843/1/4
f 843/1/4 834/1/4 844/1/4
f 835/1/4 836/1/4 845/1/4
f 845/1/4 836/1/4 846/1/4
f 837/16/4 838/16/4 847/16/4
f 847/16/4 838/16/4 848/16/4
f 839/16/4 840/16/4 849/16/4
f 849/16/4 840/16/4 850/16/4
f 841/16/4 842/16/4 851/16/4
f 851/16/4 842/16/4 852/16/4
f 844/1/4 845/1/4 854/1/4
f 854/1/4 845/1/4 855/1/4
f 851/16/4 852/16/4 856/16/4
f 852/15/4 853/15/4 857/15/4
f 856/16/4 852/16/4 857/16/4
f 857/15/4 853/15/4 858/15/4
f 859/10/4 860/10/4 861/10/4
f 861/10/4 860/10/4 862/10/4
f 863/17/4 864/17/4 869/17/4
f 869/17/4 864/17/4 870/17/4
f 865/17/4 866/17/4 871/17/4
f 871/17/4 866/17/4 872/17/4
f 867/10/4 868/10/4 874/10/4
f 874/10/4 868/10/4 875/10/4
f 873/8/4 874/8/4 878/8/4
f 878/8/4 874/8/4 879/8/4
f 876/17/4 877/17/4 880/17/4
f 880/17/4 877/17/4 881/17/4
f 878/9/4 879/9/4 882/9/4
f 882/9/4 879/9/4 883/9/4
f 882/8/4 883/8/4 884/8/4
f 884/8/4 883/8/4 885/8/4
f 885/8/4 883/8/4 886/8/4
f 884/9/4 885/9/4 887/9/4
f 887/9/4 885/9/4 888/9/4
f 880/16/4 881/16/4 889/16/4
f 889/16/4 881/16/4 890/16/4
f 891/10/4 892/10/4 896/10/4
f 892/16/4 893/16/4 897/16/4
f 896/10/4 892/10/4 897/10/4
f 897/16/4 893/16/4 898/16/4
f 894/16/4 895/16/4 899/16/4
f 899/16/4 895/16/4 900/16/4
f 901/10/4 902/10/4 903/10/4
f 903/10/4 902/10/4 904/10/4
f 905/17/4 906/17/4 911/17/4
f 911/17/4 906/17/4 912/17/4
f 907/9/4 908/9/4 914/9/4
f 914/9/4 908/9/4 915/9/4
f 909/10/4 910/10/4 917/10/4
f 910/16/4 911/16/4 918/16/4
f 917/10/4 910/10/4 918/10/4
f 918/16/4 911/16/4 919/16/4
f 914/8/4 915/8/4 920/8/4
f 920/8/4 915/8/4 921/8/4
f 916/10/4 917/10/4 922/10/4
f 922/10/4 917/10/4 923/10/4
f 920/9/4 921/9/4 926/9/4
f 926/9/4 921/9/4 927/9/4
f 926/8/4 927/8/4 928/8/4
f 928/8/4 927/8/4 929/8/4
f 923/10/4 924/10/4 931/10/4
f 924/17/4 925/17/4 932/17/4
f 931/10/4 924/10/4 932/10/4
f 932/17/4 925/17/4 933/17/4
f 928/9/4 929/9/4 934/9/4
f 934/9/4 929/9/4 935/9/4
f 930/10/4 931/10/4 936/10/4
f 936/10/4 931/10/4 937/10/4
f 934/8/4 935/8/4 940/8/4
f 940/8/4 935/8/4 941/8/4
f 937/10/4 938/10/4 942/10/4
f 938/16/4 939/16/4 943/16/4
f 942/10/4 938/10/4 943/10/4
f 943/16/4 939/16/4 944/16/4
f 912/17/4 913/17/4 945/17/4
f 945/17/4 913/17/4 946/17/4
f 944/16/4 945/16/4 949/16/4
f 949/16/4 945/16/4 950/16/4
f 947/10/4 948/10/4 951/10/4
f 951/10/4 948/10/4 952/10/4
f 953/10/4 954/10/4 955/10/4
f 955/10/4 954/10/4 956/10/4
f 957/17/4 958/17/4 961/17/4
f 961/17/4 958/17/4 962/17/4
f 959/10/4 960/10/4 964/10/4
f 964/10/4 960/10/4 965/10/4
f 963/10/4 964/10/4 967/10/4
f 967/10/4 964/10/4 968/10/4
f 966/10/4 967/10/4 971/10/4
f 971/10/4 967/10/4 972/10/4
f 968/10/4 969/10/4 973/10/4
f 973/10/4 969/10/4 974/10/4
f 962/17/4 958/17/4 976/17/4
f 970/10/4 971/10/4 978/10/4
f 978/10/4 971/10/4 979/10/4
f 972/10/4 973/10/4 980/10/4
f 980/10/4 973/10/4 981/10/4
f 975/17/4 976/17/4 982/17/4
f 976/17/4 958/17/4 983/17/4
f 982/17/4 976/17/4 983/17/4
f 977/10/4 978/10/4 984/10/4
f 984/10/4 978/10/4 985/10/4
f 979/10/4 980/10/4 986/10/4
f 986/10/4 980/10/4 987/10/4
f 985/10/4 986/10/4 989/10/4
f 989/10/4 986/10/4 990/10/4
f 988/10/4 989/10/4 991/10/4
f 991/10/4 989/10/4 992/10/4
f 993/17/4 994/17/4 995/17/4
f 995/17/4 994/17/4 996/17/4
f 996/17/4 994/17/4 998/17/4
f 997/17/4 998/17/4 999/17/4
f 998/17/4 994/17/4 1000/17/4
f 999/17/4 998/17/4 1000/17/4
f 1007/7/5 1002/7/5 1001/7/5
f 1008/7/5 1002/7/5 1007/7/5
f 1009/7/5 1004/7/5 1003/7/5
f 1010/7/5 1004/7/5 1009/7/5
f 1011/7/5 1006/7/5 1005/7/5
f 1012/7/5 1006/7/5 1011/7/5
f 1020/9/5 1014/9/5 1013/9/5
f 1021/8/5 1015/8/5 1014/8/5
f 1021/9/5 1014/9/5 1020/9/5
f 1022/8/5 1019/8/5 1018/8/5
f 1022/9/5 1018/9/5 1017/9/5
f 1023/8/5 1019/8/5 1022/8/5
f 1026/8/5 1021/8/5 1020/8/5
f 1027/8/5 1015/8/5 1021/8/5
f 1027/8/5 1021/8/5 1026/8/5
f 1028/9/5 1016/9/5 1015/9/5
f 1028/8/5 1015/8/5 1027/8/5
f 1029/8/5 1017/8/5 1016/8/5
f 1029/9/5 1022/9/5 1017/9/5
f 1029/9/5 1023/9/5 1022/9/5
f 1030/9/5 1023/9/5 1029/9/5
f 1031/9/5 1023/9/5 1030/9/5
f 1033/1/5 1025/1/5 1024/1/5
f 1034/1/5 1025/1/5 1033/1/5
f 1035/9/5 1027/9/5 1026/9/5
f 1036/9/5 1027/9/5 1035/9/5
f 1037/9/5 1016/9/5 1028/9/5
f 1038/8/5 1029/8/5 1016/8/5
f 1039/8/5 1031/8/5 1030/8/5
f 1040/1/5 1032/1/5 1031/1/5
f 1040/8/5 1031/8/5 1039/8/5
f 1041/1/5 1032/1/5 1040/1/5
f 1042/8/5 1036/8/5 1035/8/5
f 1042/8/5 1037/8/5 1036/8/5
f 1043/8/5 1037/8/5 1042/8/5
f 1044/9/5 1040/9/5 1039/9/5
f 1044/9/5 1039/9/5 1038/9/5
f 1045/9/5 1040/9/5 1044/9/5
f 1046/9/5 1043/9/5 1042/9/5
f 1047/8/5 1037/8/5 1043/8/5
f 1047/9/5 1043/9/5 1046/9/5
f 1048/9/5 1016/9/5 1037/9/5
f 1048/8/5 1037/8/5 1047/8/5
f 1049/8/5 1038/8/5 1016/8/5
f 1049/9/5 1016/9/5 1048/9/5
f 1050/9/5 1044/9/5 1038/9/5
f 1050/8/5 1038/8/5 1049/8/5
f 1051/8/5 1045/8/5 1044/8/5
f 1051/9/5 1044/9/5 1050/9/5
f 1052/8/5 1045/8/5 1051/8/5
f 1056/10/5 1053/10/5 1052/10/5
f 1057/10/5 1053/10/5 1056/10/5
f 1058/10/5 1055/10/5 1054/10/5
f 1059/10/5 1055/10/5 1058/10/5
f 1064/9/5 1061/9/5 1060/9/5
f 1065/9/5 1061/9/5 1064/9/5
f 1066/1/5 1063/1/5 1062/1/5
f 1067/1/5 1063/1/5 1066/1/5
f 1074/10/5 1069/10/5 1068/10/5
f 1075/10/5 1069/10/5 1074/10/5
f 1076/10/5 1071/10/5 1070/10/5
f 1077/10/5 1071/10/5 1076/10/5
f 1078/10/5 1073/10/5 1072/10/5
f 1079/10/5 1073/10/5 1078/10/5
f 1084/10/5 1081/10/5 1080/10/5
f 1085/10/5 1081/10/5 1084/10/5
f 1086/10/5 1083/10/5 1082/10/5
f 1087/10/5 1083/10/5 1086/10/5
f 1089/1/5 1085/1/5 1084/1/5
f 1090/1/5 1085/1/5 1089/1/5
f 1091/1/5 1088/1/5 1087/1/5
f 1092/1/5 1088/1/5 1091/1/5
f 1097/10/5 1094/10/5 1093/10/5
f 1098/10/5 1094/10/5 1097/10/5
f 1099/9/5 1096/9/5 1095/9/5
f 1100/9/5 1096/9/5 1099/9/5
f 1103/10/5 1100/10/5 1099/10/5
f 1104/10/5 1100/10/5 1103/10/5
f 1105/10/5 1102/10/5 1101/10/5
f 1106/10/5 1102/10/5 1105/10/5
f 1111/10/5 1108/10/5 1107/10/5
f 1112/10/5 1108/10/5 1111/10/5
f 1113/10/5 1110/10/5 1109/10/5
f 1114/10/5 1110/10/5 1113/10/5
f 1121/9/5 1116/9/5 1115/9/5
f 1122/9/5 1116/9/5 1121/9/5
f 1123/10/5 1118/10/5 1117/10/5
f 1124/10/5 1118/10/5 1123/10/5
f 1125/10/5 1120/10/5 1119/10/5
f 1126/10/5 1120/10/5 1125/10/5
f 1132/10/5 1127/10/5 1126/10/5
f 1132/10/5 1129/10/5 1128/10/5
f 1132/10/5 1128/10/5 1127/10/5
f 1133/10/5 1129/10/5 1132/10/5
f 1134/10/5 1129/10/5 1133/10/5
f 1135/10/5 1122/10/5 1121/10/5
f 1136/10/5 1122/10/5 1135/10/5
f 1137/10/5 1131/10/5 1130/10/5
f 1138/10/5 1131/10/5 1137/10/5
f 1139/10/5 1134/10/5 1133/10/5
f 1140/10/5 1134/10/5 1139/10/5
f 1141/10/5 1136/10/5 1135/10/5
f 1142/10/5 1136/10/5 1141/10/5
f 1147/10/5 1144/10/5 1143/10/5
f 1148/10/5 1144/10/5 1147/10/5
f 1149/10/5 1146/10/5 1145/10/5
f 1150/10/5 1146/10/5 1149/10/5
f 1155/10/5 1152/10/5 1151/10/5
f 1156/10/5 1152/10/5 1155/10/5
f 1157/10/5 1154/10/5 1153/10/5
f 1158/10/5 1154/10/5 1157/10/5
f 1162/10/5 1159/10/5 1158/10/5
f 1163/10/5 1159/10/5 1162/10/5
f 1164/10/5 1161/10/5 1160/10/5
f 1165/10/5 1161/10/5 1164/10/5
f 1172/17/5 1167/17/5 1166/17/5
f 1172/10/5 1168/10/5 1167/10/5
f 1173/10/5 1168/10/5 1172/10/5
f 1174/10/5 1170/10/5 1169/10/5
f 1175/16/5 1171/16/5 1170/16/5
f 1175/10/5 1170/10/5 1174/10/5
f 1176/16/5 1171/16/5 1175/16/5
f 1177/16/5 1171/16/5 1176/16/5
f 1178/17/5 1172/17/5 1166/17/5
f 1179/17/5 1172/17/5 1178/17/5
f 1184/17/5 1181/17/5 1180/17/5
f 1185/17/5 1181/17/5 1184/17/5
f 1186/17/5 1183/17/5 1182/17/5
f 1187/17/5 1183/17/5 1186/17/5
f 1194/17/5 1189/17/5 1188/17/5
f 1195/17/5 1189/17/5 1194/17/5
f 1196/10/5 1191/10/5 1190/10/5
f 1197/10/5 1191/10/5 1196/10/5
f 1198/16/5 1193/16/5 1192/16/5
f 1199/16/5 1193/16/5 1198/16/5
f 1204/17/5 1201/17/5 1200/17/5
f 1205/17/5 1201/17/5 1204/17/5
f 1206/16/5 1203/16/5 1202/16/5
f 1207/16/5 1203/16/5 1206/16/5
f 1212/17/5 1209/17/5 1208/17/5
f 1213/17/5 1209/17/5 1212/17/5
f 1218/16/5 1211/16/5 1210/16/5
f 1219/16/5 1211/16/5 1218/16/5
f 1220/17/5 1214/17/5 1213/17/5
f 1221/17/5 1214/17/5 1220/17/5
f 1222/17/5 1218/17/5 1217/17/5
f 1223/17/5 1218/17/5 1222/17/5
f 1224/17/5 1216/17/5 1215/17/5
f 1225/17/5 1216/17/5 1224/17/5
f 1229/15/5 1227/15/5 1226/15/5
f 1230/15/5 1227/15/5 1229/15/5
f 1231/15/5 1227/15/5 1230/15/5
f 1232/14/5 1228/14/5 1227/14/5
f 1232/15/5 1227/15/5 1231/15/5
f 1233/14/5 1228/14/5 1232/14/5
f 1234/14/5 1228/14/5 1233/14/5
f 1237/16/5 1231/16/5 1230/16/5
f 1238/16/5 1231/16/5 1237/16/5
f 1239/16/5 1233/16/5 1232/16/5
f 1240/16/5 1233/16/5 1239/16/5
f 1243/17/5 1236/17/5 1235/17/5
f 1244/17/5 1236/17/5 1243/17/5
f 1245/16/5 1242/16/5 1241/16/5
f 1246/16/5 1242/16/5 1245/16/5
f 1251/17/5 1248/17/5 1247/17/5
f 1252/17/5 1248/17/5 1251/17/5
f 1253/16/5 1250/16/5 1249/16/5
f 1254/16/5 1250/16/5 1253/16/5
f 1259/17/5 1256/17/5 1255/17/5
f 1260/17/5 1256/17/5 1259/17/5
f 1261/16/5 1258/16/5 1257/16/5
f 1262/16/5 1258/16/5 1261/16/5
f 1267/17/5 1264/17/5 1263/17/5
f 1268/17/5 1264/17/5 1267/17/5
f 1269/16/5 1266/16/5 1265/16/5
f 1270/16/5 1266/16/5 1269/16/5
f 1275/17/5 1272/17/5 1271/17/5
f 1276/17/5 1272/17/5 1275/17/5
f 1277/16/5 1274/16/5 1273/16/5
f 1278/16/5 1274/16/5 1277/16/5
f 1281/16/5 1280/16/5 1279/16/5
f 1282/16/5 1280/16/5 1281/16/5
f 1283/9/6 1284/9/6 1290/9/6
f 1284/8/6 1285/8/6 1291/8/6
f 1290/9/6 1284/9/6 1291/9/6
f 1285/9/6 1286/9/6 1292/9/6
f 1291/8/6 1285/8/6 1292/8/6
f 1286/8/6 1287/8/6 1293/8/6
f 1292/9/6 1286/9/6 1293/9/6
f 1287/9/6 1288/9/6 1294/9/6
f 1293/8/6 1287/8/6 1294/8/6
f 1288/8/6 1289/8/6 1295/8/6
f 1294/9/6 1288/9/6 1295/9/6
f 1295/8/6 1289/8/6 1296/8/6
f 1290/8/6 1291/8/6 1299/8/6
f 1299/8/6 1291/8/6 1300/8/6
f 1295/9/6 1296/9/6 1301/9/6
f 1301/9/6 1296/9/6 1302/9/6
f 1297/1/6 1298/1/6 1304/1/6
f 1304/1/6 1298/1/6 1305/1/6
f 1299/9/6 1300/9/6 1306/9/6
f 1306/9/6 1300/9/6 1307/9/6
f 1301/8/6 1302/8/6 1308/8/6
f 1302/1/6 1303/1/6 1309/1/6
f 1308/8/6 1302/8/6 1309/8/6
f 1309/1/6 1303/1/6 1310/1/6
f 1306/8/6 1307/8/6 1311/8/6
f 1311/8/6 1307/8/6 1312/8/6
f 1308/9/6 1309/9/6 1316/9/6
f 1316/9/6 1309/9/6 1317/9/6
f 1311/9/6 1312/9/6 1318/9/6
f 1312/8/6 1313/8/6 1319/8/6
f 1318/9/6 1312/9/6 1319/9/6
f 1313/9/6 1314/9/6 1320/9/6
f 1319/8/6 1313/8/6 1320/8/6
f 1314/8/6 1315/8/6 1321/8/6
f 1320/9/6 1314/9/6 1321/9/6
f 1315/9/6 1316/9/6 1322/9/6
f 1321/8/6 1315/8/6 1322/8/6
f 1316/8/6 1317/8/6 1323/8/6
f 1322/9/6 1316/9/6 1323/9/6
f 1323/8/6 1317/8/6 1324/8/6
f 1324/10/6 1325/10/6 1328/10/6
f 1328/10/6 1325/10/6 1329/10/6
f 1326/10/6 1327/10/6 1330/10/6
f 1330/10/6 1327/10/6 1331/10/6
f 1332/9/6 1333/9/6 1336/9/6
f 1336/9/6 1333/9/6 1337/9/6
f 1334/1/6 1335/1/6 1338/1/6
f 1338/1/6 1335/1/6 1339/1/6
f 1340/10/6 1341/10/6 1346/10/6
f 1346/10/6 1341/10/6 1347/10/6
f 1342/10/6 1343/10/6 1348/10/6
f 1348/10/6 1343/10/6 1349/10/6
f 1344/10/6 1345/10/6 1350/10/6
f 1350/10/6 1345/10/6 1351/10/6
f 1352/1/6 1353/1/6 1354/1/6
f 1354/1/6 1353/1/6 1355/1/6
f 1356/10/6 1357/10/6 1358/10/6
f 1358/10/6 1357/10/6 1359/10/6
f 1360/10/6 1361/10/6 1364/10/6
f 1364/10/6 1361/10/6 1365/10/6
f 1362/10/6 1363/10/6 1366/10/6
f 1366/10/6 1363/10/6 1367/10/6
f 1368/10/6 1369/10/6 1373/10/6
f 1373/10/6 1369/10/6 1374/10/6
f 1370/10/6 1371/10/6 1375/10/6
f 1375/10/6 1371/10/6 1376/10/6
f 1372/10/6 1373/10/6 1378/10/6
f 1378/10/6 1373/10/6 1379/10/6
f 1376/10/6 1377/10/6 1380/10/6
f 1380/10/6 1377/10/6 1381/10/6
f 1382/10/6 1383/10/6 1384/10/6
f 1384/10/6 1383/10/6 1385/10/6
f 1386/10/6 1387/10/6 1392/10/6
f 1392/10/6 1387/10/6 1393/10/6
f 1388/10/6 1389/10/6 1394/10/6
f 1394/10/6 1389/10/6 1395/10/6
f 1390/10/6 1391/10/6 1396/10/6
f 1396/10/6 1391/10/6 1397/10/6
f 1398/17/6 1399/17/6 1402/17/6
f 1402/17/6 1399/17/6 1403/17/6
f 1400/16/6 1401/16/6 1404/16/6
f 1404/16/6 1401/16/6 1405/16/6
f 1406/17/6 1407/17/6 1410/17/6
f 1410/17/6 1407/17/6 1411/17/6
f 1408/16/6 1409/16/6 1412/16/6
f 1412/16/6 1409/16/6 1413/16/6
f 1414/17/6 1415/17/6 1418/17/6
f 1418/17/6 1415/17/6 1419/17/6
f 1416/16/6 1417/16/6 1420/16/6
f 1420/16/6 1417/16/6 1421/16/6
f 1422/17/6 1423/17/6 1426/17/6
f 1426/17/6 1423/17/6 1427/17/6
f 1424/16/6 1425/16/6 1428/16/6
f 1428/16/6 1425/16/6 1429/16/6
f 1430/17/6 1431/17/6 1434/17/6
f 1434/17/6 1431/17/6 1435/17/6
f 1432/16/6 1433/16/6 1436/16/6
f 1436/16/6 1433/16/6 1437/16/6
f 1438/17/6 1439/17/6 1440/17/6
f 1440/17/6 1439/17/6 1441/17/6
f 1442/15/6 1443/15/6 1447/15/6
f 1447/15/6 1443/15/6 1448/15/6
f 1443/14/6 1444/14/6 1449/14/6
f 1448/15/6 1443/15/6 1449/15/6
f 1444/13/6 1445/13/6 1450/13/6
f 1449/14/6 1444/14/6 1450/14/6
f 1450/13/6 1445/13/6 1451/13/6
f 1446/17/6 1447/17/6 1453/17/6
f 1453/17/6 1447/17/6 1454/17/6
f 1451/16/6 1452/16/6 1455/16/6
f 1455/16/6 1452/16/6 1456/16/6
f 1457/17/6 1458/17/6 1461/17/6
f 1461/17/6 1458/17/6 1462/17/6
f 1459/16/6 1460/16/6 1463/16/6
f 1463/16/6 1460/16/6 1464/16/6
f 1462/17/6 1463/17/6 1465/17/6
f 1465/17/6 1463/17/6 1466/17/6
f 1467/17/6 1468/17/6 1471/17/6
f 1468/16/6 1469/16/6 1472/16/6
f 1471/17/6 1468/17/6 1472/17/6
f 1472/16/6 1469/16/6 1473/16/6
f 1473/16/6 1469/16/6 1474/16/6
f 1474/16/6 1469/16/6 1475/16/6
f 1470/17/6 1471/17/6 1480/17/6
f 1471/17/6 1472/17/6 1480/17/6
f 1480/17/6 1472/17/6 1481/17/6
f 1475/16/6 1476/16/6 1482/16/6
f 1474/16/6 1475/16/6 1482/16/6
f 1482/16/6 1476/16/6 1483/16/6
f 1477/5/6 1478/5/6 1484/5/6
f 1478/6/6 1479/6/6 1485/6/6
f 1484/5/6 1478/5/6 1485/5/6
f 1485/6/6 1479/6/6 1486/6/6
f 1481/17/6 1472/17/6 1488/17/6
f 1474/16/6 1482/16/6 1489/16/6
f 1489/16/6 1482/16/6 1490/16/6
f 1487/17/6 1488/17/6 1492/17/6
f 1488/17/6 1472/17/6 1493/17/6
f 1492/17/6 1488/17/6 1493/17/6
f 1493/17/6 1472/17/6 1494/17/6
f 1489/17/6 1490/17/6 1496/17/6
f 1490/16/6 1491/16/6 1497/16/6
f 1496/17/6 1490/17/6 1497/17/6
f 1497/16/6 1491/16/6 1498/16/6
f 1495/17/6 1496/17/6 1499/17/6
f 1494/17/6 1495/17/6 1499/17/6
f 1496/17/6 1497/17/6 1499/17/6
f 1493/17/6 1494/17/6 1499/17/6
f 1499/17/6 1497/17/6 1500/17/6
f 1504/17/6 1505/17/6 1508/17/6
f 1508/17/6 1505/17/6 1509/17/6
f 1506/16/6 1507/16/6 1510/16/6
f 1510/16/6 1507/16/6 1511/16/6
f 1501/17/6 1502/17/6 1512/17/6
f 1502/16/6 1503/16/6 1513/16/6
f 1512/17/6 1502/17/6 1513/17/6
f 1513/16/6 1503/16/6 1514/16/6
f 1515/16/6 1516/16/6 1519/16/6
f 1519/16/6 1516/16/6 1520/16/6
f 1517/15/6 1518/15/6 1521/15/6
f 1521/15/6 1518/15/6 1522/15/6
